<?xml version="1.0" standalone="no"?>
<!DOCTYPE svg PUBLIC "-//W3C//DTD SVG 1.1//EN" "http://www.w3.org/Graphics/SVG/1.1/DTD/svg11.dtd">
<svg xmlns="http://www.w3.org/2000/svg">
<defs >
<font id="NanumMyeongjo" horiz-adv-x="512" ><font-face
    font-family="NanumMyeongjoExtraBold"
    units-per-em="1024"
    panose-1="2 2 6 3 2 1 1 2 1 1"
    ascent="942"
    descent="-236"
    alphabetic="0" />
<glyph unicode=" " glyph-name="space" horiz-adv-x="307" />
<glyph unicode="!" glyph-name="exclam" horiz-adv-x="379" d="M134 474Q127 524 120 572T113 676Q113 695 116 713T128 746T150 770T186 779Q209 779 223 770T246 746T258 712T261 674Q261 620 255 573T244 476Q239 433 236 387T231 299T227 220T226 159H153Q153
183 153 219T150 298T144 386T134 474ZM188 93Q204 93 218 87T243 71T260 47T267 19Q267 5 261 -8T244 -32T219 -48T188 -54Q155 -54 132 -32T109 19Q109 33 115 46T132 70T157 87T188 93Z" />
<glyph unicode="&quot;" glyph-name="quotedbl" horiz-adv-x="328" d="M289 798L261 589H199L172 798Q170 814 185 831T226 849Q258 849 274 832T289 798ZM152 798L126 589H61L35 798Q33 814 47 831T91 849Q121 849 137 832T152 798Z" />
<glyph unicode="#" glyph-name="numbersign" horiz-adv-x="632" d="M390 547L435 773H537L492 547H614L603 482H479L442 302H577L561 239H429L382 -2H280L328 239H237L187 -2H83L132 239H7L22 302H145L183 482H46L59 547H197L244 773H347L301 547H390ZM377 482H288L250
302H340L377 482Z" />
<glyph unicode="$" glyph-name="dollar" horiz-adv-x="632" d="M67 207H123Q140 128 173 86T261 39V374Q162 415 118 464T73 586Q73 623 90 655T135 710T196 747T261 762V831H359V760Q395 758 441 741T525 693V562H469Q458 628 428 670T359 715V424Q415 398 454
375T519 326T555 269T566 195Q566 157 551 122T509 58T443 11T359 -9V-111H261V-9Q230 -8 208 -4T164 8T121 28T67 57V207ZM359 337V37Q373 38 391 48T427 77T456 119T468 173Q468 207 460 233T436 278T401 312T359 337ZM261 462V714Q248 713 232 703T203 675T180
637T170 594Q170 568 179 546T202 507T232 479T261 462Z" />
<glyph unicode="%" glyph-name="uni0025" horiz-adv-x="901" d="M571 10Q520 25 495 54T465 122T473 204T512 291Q528 317 554 343T615 388T691 414T777 409Q820 396 843 371T873 313T872 243T845 167Q822 122 791 88T725 33T650 6T571 10ZM761 359Q725 376 686
350T610 266Q591 235 580 202T567 139T573 89T604 60Q625 54 647 60T690 83T729 122T760 171Q774 199 782 229T792 285T786 332T761 359ZM550 614Q538 610 521 608T486 605T456 604T439 606Q450 578 433 536T381 440Q362 410 336 385T278 343T207 321T124 327Q86
338 63 366T34 434T43 523T97 625Q125 664 165 688T248 722T328 727T391 701L411 681Q433 669 460 665T518 666T579 689T641 736H723L273 7H177L550 614ZM289 679Q279 678 265 671T236 651T207 622T181 590Q158 554 145 518T130 452T138 400T174 372Q187 369 204
374T241 391T279 422T315 468Q328 490 337 514T351 563T356 608T349 644Q335 648 318 658T289 679Z" />
<glyph unicode="&amp;" glyph-name="ampersand" horiz-adv-x="879" d="M482 73Q439 35 380 12T260 -16T148 -3T65 57Q30 110 29 163T52 264T126 354T241 426Q225 461 215 500T206 578Q207 613 219 646T255 706T313 749T393 765Q429 765 460 755T515 727T551 683T564
624Q564 586 549 556T507 501T441 455T354 412Q371 377 390 344T429 281Q446 256 464 231T498 188Q514 209 531 236T564 294T590 353T603 408Q605 431 588 434T532 438V486H806V440Q772 437 754 435T725 429T711 416T702 393Q678 327 642 264T546 133Q582 95 615
71T673 46Q704 46 734 65T787 136L851 122Q834 59 789 21T679 -18Q651 -18 624 -11T571 9T523 38T482 73ZM267 370Q230 350 199 321T152 255T137 179T166 96Q184 69 213 57T279 48T354 69T433 122Q407 153 382 187T337 252Q319 278 301 310T267 370ZM330 466Q359
480 384 497T429 534T460 578T471 627Q471 674 448 695T398 717Q360 717 333 682T305 581Q305 555 312 525T330 466Z" />
<glyph unicode="&apos;" glyph-name="quotesingle" horiz-adv-x="180" d="M147 799L118 590H54L30 799Q28 815 42 832T86 850Q117 850 133 833T147 799Z" />
<glyph unicode="(" glyph-name="parenleft" horiz-adv-x="374" d="M379 -77L345 -117Q270 -57 220 2T138 122T93 243T79 370Q79 507 141 629T338 852L375 817Q329 777 294 724T234 611T198 489T185 370Q185 312 197 253T233 135T293 23T379 -77Z" />
<glyph unicode=")" glyph-name="parenright" horiz-adv-x="374" d="M-4 -77Q44 -31 80 23T140 135T176 252T188 370Q188 427 176 489T139 610T80 723T0 817L35 852Q170 752 232 630T295 370Q295 305 281 244T236 122T153 3T28 -117L-4 -77Z" />
<glyph unicode="*" glyph-name="asterisk" horiz-adv-x="654" d="M275 710Q270 724 264 742T257 779Q257 805 273 822T321 840Q351 840 368 823T386 779Q386 761 380 743T369 710Q368 708 367 705Q376 716 387 729Q400 745 417 755Q442 769 468 764T508 733Q522
708 516 688T486 654Q469 644 448 641T413 634Q408 633 399 632T387 629Q389 629 398 628T414 625Q428 622 449 618T487 603Q509 590 515 569T509 524Q494 498 469 493T417 504Q400 513 388 528Q376 543 367 554Q368 550 369 548Q373 534 379 516T386 477Q386 452
369 435T321 418Q289 418 273 435T257 477Q257 497 263 515T275 548Q277 553 279 558L276 555Q266 544 254 529T224 504Q199 488 174 493T132 524Q119 548 125 569T154 603Q172 614 192 618T226 625Q234 627 244 629T253 631Q252 631 243 632T228 634Q214 637 194
640T156 654Q133 668 126 688T133 733Q148 758 174 763T224 755Q241 745 254 729Q266 714 277 703Q276 707 275 710ZM365 560L366 559L365 560Z" />
<glyph unicode="+" glyph-name="plus" horiz-adv-x="654" d="M588 345H375V126H272V345H60V418H272V628H375V418H588V345Z" />
<glyph unicode="," glyph-name="comma" horiz-adv-x="280" d="M99 -36Q83 -31 71 -21T51 3T44 31Q44 44 49 57T65 80T90 96T122 103Q166 103 188 74T211 3Q211 -53 179 -98T79 -165L52 -130Q90 -116 110 -93T130 -41Q130 -38 130 -37Q114 -40 99 -36Z" />
<glyph unicode="-" glyph-name="hyphen" horiz-adv-x="654" d="M584 344H63V418H584V344Z" />
<glyph unicode="." glyph-name="period" horiz-adv-x="280" d="M130 99Q163 99 186 77T209 26Q209 -3 186 -25T130 -48Q114 -48 100 -42T75 -26T58 -2T51 26Q51 40 57 53T74 76T99 93T130 99Z" />
<glyph unicode="/" glyph-name="slash" horiz-adv-x="444" d="M434 800L101 -45H4L336 800H434Z" />
<glyph unicode="0" glyph-name="zero" horiz-adv-x="550" d="M28 370Q28 446 42 517T85 643T161 731T272 764Q337 764 383 731T459 644T503 518T517 371Q517 294 503 224T459 99T383 13T272 -20Q207 -20 161 12T86 98T42 222T28 370ZM272 36Q303 36 327 60T368
128T394 233T403 370Q403 443 394 505T368 613T327 684T272 710Q242 710 218 685T177 614T151 507T142 371Q142 296 151 235T178 129T219 61T272 36Z" />
<glyph unicode="1" glyph-name="one" horiz-adv-x="550" d="M118 666L342 787V121Q342 94 347 80T366 58T400 49T451 46V-3H126V47Q152 48 172 49T205 58T226 80T233 122V596Q233 621 233 633T222 647T188 639T118 609V666Z" />
<glyph unicode="2" glyph-name="two" horiz-adv-x="550" d="M40 -3V34Q72 68 109 111T181 198T245 279T293 340Q309 362 325 388T355 442T376 498T385 552Q385 574 378 599T356 645T317 680T258 694Q232 694 208 682T164 648T128 594T106 526L40 540Q48 584 66
624T113 696T182 745T276 764Q323 764 363 748T431 704T476 638T492 557Q492 524 482 491T457 426T424 367T389 317Q364 282 340 252T293 192T245 133T193 70H375Q397 70 410 71T432 79T450 99T473 139H534L478 -3H40Z" />
<glyph unicode="3" glyph-name="three" horiz-adv-x="550" d="M466 605Q466 577 457 551T433 502T397 461T348 427Q378 419 406 405T456 365T490 307T503 236Q503 182 487 141T441 70T369 19T276 -12Q237 -20 198 -19T127 -9T77 16T57 53Q57 69 71 86T114 104Q146
104 168 90T208 65Q226 52 239 49T263 47Q286 48 309 59T351 89T382 135T395 197Q397 296 346 336T170 362V411Q212 420 246 438T303 480T339 532T352 591Q352 645 328 670T262 696Q218 696 181 663T126 570L56 575Q66 617 86 652T136 712T203 752T285 766Q322
766 355 754T412 720T451 669T466 605Z" />
<glyph unicode="4" glyph-name="four" horiz-adv-x="550" d="M349 769H426V260H542V191H426V-3H319V191H23V249L349 769ZM318 569L124 260H318V569Z" />
<glyph unicode="5" glyph-name="five" horiz-adv-x="550" d="M210 -15Q183 -15 153 -11T96 3T53 25T36 57Q36 76 51 90T96 105Q124 105 146 94T185 72Q199 63 216 56T251 50Q276 51 299 65T339 104T366 164T377 241Q377 352 315 406T122 455Q100 454 87 465T81
495L185 754H490L473 677H244L190 537Q256 539 311 521T405 468T467 383T489 272Q489 215 468 163T410 72T322 9T210 -15Z" />
<glyph unicode="6" glyph-name="six" horiz-adv-x="550" d="M173 444Q189 460 213 472T268 487Q320 492 365 475T443 422T496 338T516 232Q516 179 501 133T456 53T385 0T289 -20Q233 -20 187 4T109 72T59 174T41 305Q41 399 72 482T163 628T308 728T502 766L503
720Q441 716 388 695T292 640T221 559T173 444ZM158 278Q156 231 164 187T190 109T232 55T290 34Q321 34 343 51T378 97T397 160T401 233Q399 273 388 309T359 372T315 413T261 424Q219 419 190 381T158 278Z" />
<glyph unicode="7" glyph-name="seven" horiz-adv-x="550" d="M505 754L518 734L290 -2H189L396 670H202Q181 670 167 666T140 651T116 623T87 581L30 596L97 754H505Z" />
<glyph unicode="8" glyph-name="eight" horiz-adv-x="550" d="M490 581Q490 545 480 516T455 463T419 422T377 393Q440 367 477 323T514 205Q514 155 496 114T444 43T366 -3T268 -19Q221 -19 179 -4T105 37T54 100T35 179Q35 218 47 251T80 312T125 358T177 387Q153
399 131 415T93 455T66 506T56 571Q56 613 72 649T119 711T190 751T280 766Q319 766 356 754T423 718T471 660T490 581ZM163 581Q163 555 174 531T205 487T251 450T308 424Q341 444 366 482T392 568Q392 605 383 632T359 678T322 706T278 715Q256 715 236 707T199
682T173 640T163 581ZM135 181Q135 145 146 118T177 73T219 46T267 36Q295 36 320 46T365 75T396 120T407 179Q407 221 397 247T367 293T317 326T246 357Q191 334 163 288T135 181Z" />
<glyph unicode="9" glyph-name="nine" horiz-adv-x="550" d="M385 303Q365 282 340 270T284 255Q232 250 187 268T109 320T56 404T37 510Q37 563 52 609T97 689T168 743T263 763Q320 763 366 739T444 672T494 568T512 437Q512 343 481 260T389 114T244 14T50 -24L49
23Q113 29 166 50T262 104T335 183T385 303ZM396 464Q398 511 389 555T363 634T320 690T262 711Q231 711 210 693T175 647T156 582T153 509Q155 469 166 433T195 370T237 329T290 317Q332 324 363 362T396 464Z" />
<glyph unicode=":" glyph-name="colon" horiz-adv-x="420" d="M207 229Q223 229 238 223T263 207T280 184T287 156Q287 141 281 128T264 104T238 87T207 81Q191 81 177 87T152 103T135 127T128 156Q128 170 134 183T151 207T176 223T207 229ZM207 664Q223 664
238 658T263 642T280 618T287 589Q287 575 281 562T264 538T238 521T207 515Q191 515 177 521T152 537T135 561T128 589Q128 604 134 617T151 641T176 658T207 664Z" />
<glyph unicode=";" glyph-name="semicolon" horiz-adv-x="420" d="M183 104Q167 109 155 119T135 143T128 170Q128 183 133 196T149 220T174 237T206 244Q250 244 273 215T296 143Q296 87 264 42T163 -27L136 10Q214 40 214 99V102Q198 99 183 104ZM207 664Q223
664 238 658T263 642T280 618T287 589Q287 575 281 562T264 538T238 521T207 515Q191 515 177 521T152 537T135 561T128 589Q128 604 134 617T151 641T176 658T207 664Z" />
<glyph unicode="&lt;" glyph-name="less" horiz-adv-x="561" d="M562 -69L499 -118L129 351V380L499 847L562 799L222 366L562 -69Z" />
<glyph unicode="=" glyph-name="equal" horiz-adv-x="654" d="M583 447H62V518H583V447ZM583 245H62V315H583V245Z" />
<glyph unicode="&gt;" glyph-name="greater" horiz-adv-x="561" d="M4 -69L342 366L4 800L68 847L438 381V352L65 -120L4 -69Z" />
<glyph unicode="?" glyph-name="question" horiz-adv-x="537" d="M178 564Q178 546 166 529T130 508Q111 504 95 509T68 526T49 551T42 581Q41 623 59 658T108 718T180 758T266 772Q313 772 353 760T424 724T471 663T489 578Q489 555 480 529T455 477T420 424T382
373Q343 322 324 270T304 150H232Q229 218 244 272T298 386Q310 404 324 426T349 474T368 525T375 578Q374 655 341 690T262 725Q238 725 217 718T179 698T154 669T144 636Q144 627 149 621T161 608T172 591T178 564ZM266 93Q282 93 296 87T321 71T338 47T345 19Q345
5 339 -8T322 -32T297 -48T266 -54Q233 -54 210 -32T187 19Q187 33 193 46T210 70T235 87T266 93Z" />
<glyph unicode="@" glyph-name="at" horiz-adv-x="874" d="M445 -6Q352 -8 274 18T141 94T57 213T34 369Q39 448 71 518T157 640T286 723T451 758Q523 760 590 737T710 672T795 570T827 440Q827 375 803 321T739 229T651 170T553 150Q519 150 497 162T470 186Q464
180 453 172T426 158T390 146T347 141Q294 141 259 161T206 217T187 298T202 396Q215 436 236 472T288 536T356 580T440 597Q464 597 481 594T513 583T535 568T547 554L555 580H664L543 247Q535 225 541 212T559 200Q589 204 620 223T675 272T716 343T732 432Q732
493 709 544T646 630T556 685T450 702Q383 700 327 674T228 604T161 501T130 373Q124 292 146 232T213 131T319 70T454 48Q491 48 531 56T611 82T689 125T760 188L802 150Q734 81 649 39T445 -6ZM457 306L507 443Q513 460 512 477T505 508T488 532T462 542Q436
544 414 532T373 500T339 452T313 396Q302 365 296 330T292 265T306 215T344 193Q364 191 381 200T413 225T438 263T457 306Z" />
<glyph unicode="A" glyph-name="A" horiz-adv-x="744" d="M244 273L197 134Q188 110 185 93T189 66T213 50T264 45V-2Q236 -1 203 -1T135 -1T67 -1T6 -2V47Q34 47 51 51T80 67T100 96T119 143L341 781H397L613 141Q623 111 632 93T655 65T685 51T729 43V-2Q701
-1 664 -1T588 -1T512 -1T447 -2V45Q480 45 497 48T521 60T523 87T508 136L462 273H244ZM263 329H444L355 595L263 329Z" />
<glyph unicode="B" glyph-name="B" horiz-adv-x="627" d="M412 403Q448 397 481 381T540 340T581 280T597 206Q597 161 579 123T524 58T434 14T311 -2Q284 -1 248 -1T172 -1T95 -1T25 -2V44Q57 44 76 46T104 57T116 81T119 127V629Q119 653 117 668T104 691T76
703T25 706V752Q52 751 87 751T157 750T226 750T283 752Q327 752 371 743T450 713T508 656T530 569Q530 537 521 510T495 462T457 425T412 403ZM229 699V420H269Q301 420 328 427T376 452T408 498T420 569Q420 608 410 633T379 673T331 693T267 699H229ZM229 366V126Q229
99 231 84T241 61T268 53T318 51Q395 51 438 85T481 195Q481 240 467 272T429 326T370 356T293 366H229Z" />
<glyph unicode="C" glyph-name="C" horiz-adv-x="745" d="M699 711L710 542H653Q639 635 590 675T454 715Q393 715 341 692T249 626T188 523T166 388Q166 307 190 242T255 131T352 60T470 35Q547 35 592 84T652 215H713L685 39Q667 27 639 17T578 -1T513 -13T453
-18Q363 -18 289 11T161 93T78 220T48 385Q48 468 82 538T172 660T300 739T450 768Q516 768 579 751T699 711Z" />
<glyph unicode="D" glyph-name="D" horiz-adv-x="806" d="M116 133V624Q116 651 114 667T101 691T72 703T19 706V752Q53 752 92 752T172 751T252 751T326 752Q427 752 505 720T638 636T720 516T748 376Q748 305 722 237T641 116T506 31T314 -2Q286 -1 249 -1T171
-1T91 -1T19 -2V47Q53 47 72 49T101 61T113 87T116 133ZM226 695V132Q226 103 229 87T243 63T274 53T331 51Q409 51 465 77T558 148T612 252T630 378Q630 454 608 514T543 614T440 676T303 698Q269 698 252 697T226 695Z" />
<glyph unicode="E" glyph-name="E" horiz-adv-x="627" d="M230 699V420H359Q375 420 386 423T403 436T412 463T415 511H476V256H415Q415 290 413 310T405 341T388 354T358 357H230V136Q230 107 233 90T248 65T279 54T335 51H406Q442 51 465 56T505 75T533 115T558
180H623Q609 136 595 89T571 -2Q505 -1 435 -1T294 0T154 0T22 -2V45Q55 45 74 48T103 61T117 89T120 137V620Q120 650 117 667T104 692T75 703T22 705V752Q84 751 150 751T284 750T417 750T541 752V572H481Q477 615 472 640T453 679T417 695T357 699H230Z" />
<glyph unicode="F" glyph-name="F" horiz-adv-x="568" d="M230 357V138Q230 105 232 86T243 58T272 47T326 45V-3Q302 -2 260 -2T173 -2T87 -2T22 -3V45Q57 45 76 47T106 59T118 87T120 138V620Q120 649 118 665T105 690T76 701T22 705V753Q146 751 280 751T540
753L546 581L484 582Q479 616 473 639T454 675T419 693T358 699H230V420H357Q375 420 387 422T406 434T416 460T420 508H485Q483 487 483 455T482 388T482 318T485 260H423Q422 290 419 309T408 338T389 353T358 357H230Z" />
<glyph unicode="G" glyph-name="G" horiz-adv-x="806" d="M713 711L734 544H672Q652 637 598 676T459 715Q390 715 336 687T245 611T189 503T169 379Q169 312 189 250T247 140T340 64T465 35Q498 35 522 39T562 50T589 62T604 73V221Q604 245 600 258T586 278T557
287T509 289V337Q539 336 576 336T651 335T725 335T788 337V290Q767 290 753 288T730 279T718 259T714 221V92L730 76V46Q657 14 592 -2T456 -18Q366 -18 291 13T163 97T80 221T50 372Q50 456 80 528T164 653T289 737T443 768Q517 768 580 752T713 711Z" />
<glyph unicode="H" glyph-name="H" horiz-adv-x="866" d="M221 424H635V623Q635 652 633 668T621 693T592 704T540 706V754Q564 753 606 753T692 752T777 752T840 754V706Q807 706 789 704T760 693T748 668T745 621V140Q745 108 748 89T761 61T789 48T840 45V-4Q818
-3 778 -2T692 -1T606 -2T540 -4V45Q572 45 591 48T619 62T632 90T635 138V361H221V138Q221 107 223 89T235 61T264 48T315 45V-3Q292 -2 251 -2T166 -1T80 -2T15 -4V45Q47 45 66 48T95 62T108 90T111 140V617Q111 648 108 665T95 692T66 703T15 706V755Q38 753
79 753T164 752T250 752T315 755V706Q283 706 265 703T237 692T224 666T221 620V424Z" />
<glyph unicode="I" glyph-name="I" horiz-adv-x="327" d="M108 140V618Q108 649 106 666T93 692T64 703T12 706V755Q27 754 50 754T102 753T161 752T220 752T272 753T312 754V706Q279 706 261 704T233 693T221 667T218 618V140Q218 109 221 91T234 62T262 49T312
45V-3Q289 -2 248 -2T163 -1T77 -2T12 -4V45Q43 45 62 48T91 62T105 90T108 140Z" />
<glyph unicode="J" glyph-name="J" horiz-adv-x="387" d="M279 617V97Q279 -64 227 -145T66 -226Q43 -226 21 -221T-18 -206T-46 -181T-57 -145Q-58 -126 -46 -109T-7 -89Q6 -88 18 -92T40 -103T54 -120T60 -139Q60 -155 66 -164T92 -173Q133 -173 150 -125T168
33V617Q168 648 165 665T153 692T124 703T73 706V755Q95 753 136 753T222 752T308 752T373 754V706Q340 706 322 704T294 692T282 666T279 617Z" />
<glyph unicode="K" glyph-name="K" horiz-adv-x="745" d="M344 440L611 76Q621 64 635 58T666 49T698 46T726 45V-3Q709 -2 685 -2T634 -1T583 -1T544 -2L274 372L221 319V139Q221 107 223 89T235 61T260 48T305 45V-3Q283 -2 244 -2T162 -1T79 -2T15 -4V45Q47
45 66 48T95 60T108 88T111 139V617Q111 647 108 664T95 691T66 703T15 706V754Q37 753 77 753T160 752T242 752T301 754V706Q274 706 259 704T235 693T224 668T221 623V406L456 633Q460 637 468 645T483 661T496 677T502 690Q502 701 492 703T443 706V754Q465
753 498 753T565 752T632 752T685 754V706Q664 706 646 702T609 686T565 653T506 598L344 440Z" />
<glyph unicode="L" glyph-name="L" horiz-adv-x="627" d="M618 180L574 -2Q540 -1 496 -1T403 0T302 1T201 1T107 0T27 -2V44Q59 45 77 48T106 61T118 90T121 142V617Q121 648 119 665T107 692T78 703T27 706V755Q49 753 89 753T174 752T261 752T327 755V706Q295
706 276 704T247 692T234 666T231 618V143Q231 111 237 93T261 65T311 54T398 51Q437 51 462 55T505 73T534 112T558 180H618Z" />
<glyph unicode="M" glyph-name="M" horiz-adv-x="1044" d="M786 557L529 -8H478L225 540L218 138Q218 111 221 94T232 66T257 50T299 44V-2Q272 -1 235 -1T158 -1T80 -1T14 -3V45Q51 46 74 49T111 62T130 90T138 141L150 626Q150 672 131 689T57 706V755Q77 753
103 753T154 752T202 752T238 755L519 146L793 754Q808 752 834 752T888 751T942 753T983 757V706Q954 706 937 702T909 689T895 664T891 627L902 141Q903 109 907 91T923 62T957 49T1018 45V-2Q991 -2 946 -2T851 -1T757 -1T685 -2V45Q720 45 741 48T774 61T789
90T793 141L786 557Z" />
<glyph unicode="N" glyph-name="N" horiz-adv-x="865" d="M755 614V-12H692L211 583V136Q211 104 214 86T227 58T256 47T307 45V-2Q279 -1 242 -1T165 -1T89 -1T23 -3V45Q58 45 79 47T113 59T129 88T133 140V614Q133 642 127 659T106 687T67 702T5 706V754Q21
752 47 752T101 751T152 752T189 754L675 165V620Q675 648 672 665T659 691T630 703T577 706V754Q600 753 637 753T715 752T793 752T852 754V706Q817 706 798 704T769 692T757 665T755 614Z" />
<glyph unicode="O" glyph-name="O" horiz-adv-x="865" d="M808 379Q808 305 781 234T704 107T584 17T428 -18Q349 -18 280 14T160 99T80 223T50 371Q50 444 77 515T155 643T275 733T431 768Q509 768 578 736T698 651T778 527T808 379ZM684 349Q684 388 677 430T655
513T618 590T567 654T500 698T418 715Q364 715 319 692T242 628T191 529T173 401Q173 343 190 279T240 160T324 71T440 35Q498 35 543 58T619 122T667 221T684 349Z" />
<glyph unicode="P" glyph-name="P" horiz-adv-x="567" d="M220 310V139Q220 107 223 89T235 61T264 48T315 45V-2Q285 -1 246 -1T166 -1T85 -1T14 -3V45Q46 45 65 48T94 60T107 89T110 141V621Q110 651 108 668T96 693T68 704T17 706V752Q43 751 79 751T152 751T224
751T279 753Q338 753 387 737T471 693T525 624T545 534Q545 485 527 445T478 376T406 330T318 311Q297 310 271 310T220 310ZM220 370Q238 368 261 367T302 367Q358 369 393 410T428 526Q428 571 414 603T377 657T323 688T261 699Q251 699 237 698T220 696V370Z"
/>
<glyph unicode="Q" glyph-name="Q" horiz-adv-x="865" d="M522 -7Q544 -36 573 -56T639 -87T725 -101T834 -98V-142Q766 -156 701 -156T579 -140T473 -94T391 -14Q320 -9 258 24T150 109T77 229T50 371Q50 444 77 515T155 643T275 733T431 768Q509 768 578 736T698
651T778 527T808 379Q808 315 788 253T730 138T639 47T522 -7ZM684 349Q684 388 677 430T655 513T618 590T567 654T500 698T418 715Q364 715 319 692T242 628T191 529T173 401Q173 343 190 279T240 160T324 71T440 35Q498 35 543 58T619 122T667 221T684 349Z"
/>
<glyph unicode="R" glyph-name="R" horiz-adv-x="745" d="M323 345H231V138Q231 108 234 90T246 62T275 49T327 45V-4Q303 -3 262 -2T177 -1T91 -1T27 -4V44Q59 44 77 46T106 58T118 87T121 140V618Q121 648 118 665T106 691T77 703T27 706V753Q55 753 95 753T179
752T263 752T329 753Q403 753 450 733T525 684T562 620T573 557Q573 521 561 490T528 435T483 393T431 369Q449 339 472 303T521 232T570 164T612 110Q634 84 661 65T733 45V-4Q690 -1 643 -1T558 -4Q529 34 498 80T435 173T375 264T323 345ZM231 401L283 399Q331
399 364 412T417 447T447 496T456 550Q456 583 448 610T420 657T368 688T289 699Q267 699 254 699T231 697V401Z" />
<glyph unicode="S" glyph-name="S" horiz-adv-x="520" d="M56 18L32 191H95Q102 159 112 131T138 81T176 48T232 35Q263 35 290 44T336 71T366 112T377 165Q377 199 365 224T333 268T285 303T229 335Q200 351 169 369T113 413T71 472T54 552Q54 606 72 646T123
714T198 754T291 768Q329 768 358 764T425 753L446 598H384Q374 660 349 687T274 715Q213 715 182 680T150 590Q150 557 164 531T201 482T254 443T315 410Q346 394 376 377T430 336T468 281T483 206Q483 151 461 109T402 39T320 -3T225 -18Q178 -18 139 -10T56
18Z" />
<glyph unicode="T" glyph-name="T" horiz-adv-x="685" d="M672 754L664 595H601Q600 625 598 644T587 673T562 688T517 692H394V140Q394 108 397 90T410 62T439 49T489 45V-2Q460 -1 421 -1T339 -1T257 -1T189 -3V45Q220 45 238 48T267 61T280 89T284 140V692H179Q149
692 131 689T101 675T82 646T67 595H2L16 754Q83 751 169 750T344 749T519 750T672 754Z" />
<glyph unicode="U" glyph-name="U" horiz-adv-x="745" d="M738 756V706Q709 706 693 704T668 694T659 668T657 620V242Q657 186 639 139T586 57T499 2T379 -18Q314 -18 262 -2T174 49T117 134T96 255V616Q96 646 93 664T81 691T52 703T1 706V755Q23 753 64 752T150
751T236 752T302 755V706Q270 706 251 703T222 691T209 664T206 616V282Q206 156 254 101T406 45Q444 45 476 59T531 98T567 161T580 244V616Q580 647 579 664T569 690T543 701T493 705V755Q514 753 548 753T618 752T687 753T738 756Z" />
<glyph unicode="V" glyph-name="V" horiz-adv-x="746" d="M357 -18L116 604Q104 637 94 657T72 688T42 702T-4 706V755Q18 753 56 753T138 752T220 752T283 754V705Q253 704 237 701T216 689T214 663T230 614L400 157L572 625Q582 653 586 669T585 692T563 702T516
705V754Q539 753 571 753T636 752T698 752T745 754V706Q723 706 709 703T685 691T667 663T648 613L410 -18H357Z" />
<glyph unicode="W" glyph-name="W" horiz-adv-x="1044" d="M551 271L418 -18H365L101 628Q92 650 85 665T67 689T39 702T-6 706V755Q15 753 53 753T132 752T210 753T267 755V706Q242 706 228 704T208 695T206 673T218 636L412 144L512 362L401 626Q392 648 384
663T364 688T335 702T292 706V755Q314 753 351 753T428 752T502 752T555 755V706Q532 706 520 704T503 695T502 673T517 633L572 497L633 628Q644 653 648 668T647 691T626 703T582 706V755Q601 753 632 753T696 752T758 753T803 755V706Q783 706 769 699T744 681T726
654T711 623L610 403L711 157L883 621Q893 650 897 667T896 692T875 703T831 706V755Q850 753 879 753T940 752T998 753T1040 755V706Q1021 706 1011 704T993 692T978 664T961 615L726 -18H674L551 271Z" />
<glyph unicode="X" glyph-name="X" horiz-adv-x="806" d="M385 312L244 125Q222 96 212 80T205 57T225 47T275 45V-2Q249 -1 215 -1T146 -1T76 -2T13 -4V45Q38 46 56 49T92 63T128 91T171 141L343 367L148 626Q131 648 118 663T91 687T60 701T18 706V755Q46 753
86 752T167 751T246 751T310 753V706Q281 706 265 704T243 695T241 678T259 648L408 453L546 633Q564 657 570 671T572 693T550 703T505 706V755Q529 753 563 753T633 752T704 752T764 754V706Q734 706 714 701T677 684T646 656T613 616L451 398L657 127Q674 104
688 89T717 65T747 50T785 43V-3Q755 -2 719 -2T646 -1T574 -1T513 -2V47Q539 45 553 45T571 50T570 64T552 90L385 312Z" />
<glyph unicode="Y" glyph-name="Y" horiz-adv-x="745" d="M438 376V130Q438 102 441 86T455 60T484 48T534 45V-3Q503 -2 463 -2T382 -1T301 -1T233 -3V45Q264 45 283 48T312 59T325 84T328 130V360L127 647Q111 667 100 678T77 696T50 703T12 705V754Q38 752
74 752T150 751T226 751T293 753V706Q244 706 236 697T248 657L403 439L564 660Q586 688 578 697T510 706V755Q534 753 562 752T618 751T673 752T724 755V706Q706 706 696 705T677 697T658 679T632 643L438 376Z" />
<glyph unicode="Z" glyph-name="Z" horiz-adv-x="745" d="M730 200L676 -2Q636 -1 581 -1T464 0T336 1T208 1T92 0T0 -2L529 689H239Q206 689 185 684T151 667T128 633T110 579H43L75 754Q141 751 224 750T394 748T563 749T710 754L180 60H444Q499 60 535 66T595
89T635 132T668 200H730Z" />
<glyph unicode="[" glyph-name="bracketleft" horiz-adv-x="374" d="M102 826H375V767H236Q216 767 213 763T209 739V9Q209 -11 213 -18T240 -25H375V-85H102V826Z" />
<glyph unicode="\" glyph-name="backslash" horiz-adv-x="1024" d="M286 753V709Q254 708 235 704T206 691T197 665T206 623L254 474H457L474 523L431 638Q425 656 418 669T399 690T371 702T326 708V753H617V709Q584 709 564 706T535 693T527 666T538 622L588
474H783L822 608Q830 633 833 651T832 682T811 701T763 709V753H1015V711Q969 705 947 691T914 643L862 474H1010V399H839L709 -19H667L519 399H509L360 -19H316L178 399H0V474H154L106 615Q99 640 92 657T72 686T42 702T-3 708V753H286ZM280 399L352 172L431 399H280ZM613
399L692 169L761 399H613Z" />
<glyph unicode="]" glyph-name="bracketright" horiz-adv-x="374" d="M279 826V-85H6V-25H141Q164 -25 168 -18T172 9V739Q172 759 169 763T145 767H6V826H279Z" />
<glyph unicode="^" glyph-name="asciicircum" horiz-adv-x="514" d="M513 685L459 634L255 806L54 636L0 682L224 894H289L513 685Z" />
<glyph unicode="_" glyph-name="underscore" horiz-adv-x="514" d="M516 -148H-8V-80H516V-148Z" />
<glyph unicode="`" glyph-name="grave" horiz-adv-x="222" d="M125 809L205 618L151 587L24 766Q10 782 12 801T36 834Q48 840 62 841T88 839T110 828T125 809Z" />
<glyph unicode="a" glyph-name="a" horiz-adv-x="515" d="M300 108V229Q212 208 173 182T133 117Q133 75 148 63T196 51Q223 51 251 69T300 108ZM482 92L493 45Q470 23 441 3T375 -18Q358 -18 345 -12T322 2T308 22T302 41Q293 31 280 21T249 2T206 -12T151 -18Q124
-18 101 -9T62 15T36 50T28 94Q29 134 51 162T111 211T197 248T300 280V342Q300 382 284 404T222 427Q190 427 168 408T144 358Q144 333 129 318T88 302Q62 302 52 316T42 348Q42 377 68 403T156 462Q190 479 212 488T265 498Q294 498 319 490T364 467T395 429T406
378V112Q406 87 407 74T416 59T439 65T482 92Z" />
<glyph unicode="b" glyph-name="b" horiz-adv-x="575" d="M144 814H199Q196 783 195 750T193 695V435Q202 444 215 455T246 475T288 491T336 499Q384 499 422 480T487 428T528 354T543 267Q543 211 524 160T471 69T388 6T281 -18Q228 -18 191 -6T140 17L117 -14L71
9Q79 58 83 106T87 204V655Q87 680 86 693T79 713T60 720T22 721V761Q97 772 144 814ZM193 367V127Q193 82 216 56T290 29Q328 29 356 47T404 95T432 159T442 227Q442 272 432 309T403 372T359 413T306 427Q292 427 277 422T246 409T217 390T193 367Z" />
<glyph unicode="c" glyph-name="c" horiz-adv-x="475" d="M421 134L461 102Q418 46 363 14T241 -18Q196 -18 157 2T87 55T40 129T22 214Q22 274 42 326T98 416T183 477T292 499Q314 499 340 495T390 480T428 454T443 416Q443 396 432 380T397 364Q379 364 363
373T334 407Q325 425 306 435T252 445Q222 445 198 427T158 382T134 322T125 261Q125 222 135 186T165 123T216 78T286 61Q324 61 356 81T421 134Z" />
<glyph unicode="d" glyph-name="d" horiz-adv-x="575" d="M382 119V356Q382 383 373 400T348 427T316 441T283 445Q257 445 231 433T183 395T148 332T134 242Q134 200 145 166T176 108T223 70T284 57Q293 57 309 62T342 75T370 95T382 119ZM382 474V658Q382 682
381 695T374 714T355 720T316 721V761Q392 771 439 814H494Q490 783 489 750T487 693V102Q487 87 488 79T496 68T517 64T557 67V29Q535 21 499 8T435 -18Q425 -23 416 -23T399 -22T387 -16T382 -9V33Q371 23 358 15T328 1T288 -11T241 -17Q192 -17 153 3T85 57T42
134T27 222Q27 277 47 327T104 415T189 476T295 499Q324 499 347 492T382 474Z" />
<glyph unicode="e" glyph-name="e" horiz-adv-x="455" d="M404 288H125V269Q125 260 125 249T126 224Q128 188 138 158T166 106T206 72T259 59Q299 59 331 79T396 138L441 110Q409 54 358 18T240 -18Q193 -18 153 1T84 53T39 130T22 224Q22 288 38 339T85 425T155
480T244 499Q277 499 310 488T370 456T413 401T430 324Q430 304 428 296T404 288ZM133 342H307Q319 342 320 344T322 357Q322 372 317 387T300 416T274 437T239 445Q194 445 168 416T133 342Z" />
<glyph unicode="f" glyph-name="f" horiz-adv-x="336" d="M204 471H337V407H204V101Q204 82 207 71T221 54T251 47T300 45V-3Q271 -2 234 -2T157 -1T80 -2T15 -4V45Q41 45 57 47T83 56T95 74T99 103V407H26V444Q56 449 77 461T99 503Q99 532 104 565T119 630T146
692T184 744Q226 787 263 803T318 819Q350 819 369 806T389 767Q389 756 383 748T368 733T348 724T327 721Q313 721 305 722T290 726T277 730T260 732Q247 732 237 723T220 698T208 663T204 625V471Z" />
<glyph unicode="g" glyph-name="g" horiz-adv-x="515" d="M106 19Q61 39 48 71T43 141Q66 155 84 166T113 186Q78 206 54 238T29 327Q29 363 42 394T81 448T146 485T236 499Q264 499 288 494T333 483Q353 476 376 471T428 466Q437 466 443 466T456 467Q461 467
468 468T500 472V402L409 406Q413 401 418 380T423 335Q423 295 409 263T367 209T303 174T220 162Q208 162 196 162T171 164Q145 150 145 123Q145 97 159 88T205 79Q242 79 275 79T342 78Q376 78 405 71T456 48T490 9T502 -47Q502 -85 480 -120T419 -182T327 -226T213
-243Q161 -243 122 -230T57 -197T18 -153T5 -106Q5 -59 35 -27T106 19ZM141 338Q141 284 163 248T227 211Q276 211 296 244T317 324Q317 346 312 368T295 409T266 440T224 452Q203 452 188 442T162 415T146 378T141 338ZM103 -91Q103 -116 113 -134T140 -164T180
-181T230 -187Q266 -187 297 -180T352 -158T389 -125T402 -80Q402 -57 392 -42T363 -18T319 -6T265 -2Q184 -2 144 -26T103 -91Z" />
<glyph unicode="h" glyph-name="h" horiz-adv-x="575" d="M81 112V655Q81 680 80 693T73 713T54 720T15 721V761Q89 771 138 814H193Q189 783 188 750T186 695V420Q194 430 209 445T241 472T282 491T336 499Q372 499 400 486T447 450T476 397T486 331V111Q486
92 487 79T496 59T518 48T558 45V-4Q540 -3 506 -2T434 -1T362 -2T310 -4V45Q336 45 350 46T371 53T379 73T381 112V268Q381 315 377 344T364 390T339 413T301 419Q287 419 271 413T240 396T210 372T186 344V111Q186 89 187 76T196 56T218 47T258 45V-4Q240 -3
206 -2T134 -1T63 -2T11 -4V45Q35 45 49 47T70 55T79 75T81 112Z" />
<glyph unicode="i" glyph-name="i" horiz-adv-x="276" d="M190 377V100Q190 80 191 69T200 53T221 47T260 45V-2Q225 -2 196 -1T140 0Q111 0 81 0T15 -2V45Q40 45 54 46T75 52T83 69T85 100V340Q85 364 84 378T77 399T60 408T27 410V450Q63 455 90 465T141 498H196Q192
468 191 435T190 377ZM134 763Q164 763 184 743T205 696Q205 671 185 651T134 631Q119 631 107 636T84 651T69 672T63 696Q63 722 84 742T134 763Z" />
<glyph unicode="j" glyph-name="j" horiz-adv-x="276" d="M85 -34V340Q85 364 84 378T77 399T60 408T27 410V450Q63 455 90 465T141 498H196Q192 468 191 435T190 377V-24Q190 -73 178 -109T142 -170T84 -213T8 -243L-5 -204Q46 -178 65 -138T85 -34ZM135 763Q165
763 185 743T206 696Q206 671 186 651T135 631Q106 631 86 651T65 696Q65 722 85 742T135 763Z" />
<glyph unicode="k" glyph-name="k" horiz-adv-x="575" d="M183 279L304 382Q342 415 342 425T297 435V485Q315 483 347 483T413 482T479 482T526 485V435Q502 435 485 431T452 420T423 403T394 381L267 274L432 86Q460 57 488 50T555 42V-4Q540 -3 517 -3T469
-2T422 -2T385 -3Q376 9 366 22T346 45L199 217L183 204V110Q183 87 184 74T193 55T214 47T255 45V-4Q235 -3 201 -2T131 -1T61 -2T8 -4V45Q33 45 47 46T68 54T76 73T78 111V655Q78 680 77 693T70 713T51 720T12 721V761Q87 771 135 814H189Q186 783 185 750T183
694V279Z" />
<glyph unicode="l" glyph-name="l" horiz-adv-x="276" d="M85 111V655Q85 680 84 693T77 713T58 720T19 721V761Q95 771 142 814H197Q194 783 192 750T190 693V111Q190 91 192 78T202 58T223 48T260 45V-3Q235 -2 203 -2T137 -1T71 -2T15 -4V45Q40 45 54 47T75
56T83 76T85 111Z" />
<glyph unicode="m" glyph-name="m" horiz-adv-x="864" d="M195 498Q193 483 192 473T189 449Q189 428 189 420Q205 437 224 452T261 477T301 492T354 499Q376 499 395 494T430 479T457 453T473 419Q499 445 540 472T642 499Q678 499 703 486T745 450T768 400T775
341V108Q775 88 777 76T786 56T806 47T843 45V-3Q819 -2 788 -2T724 -1T660 -2T603 -4V45Q626 45 639 47T659 56T668 75T670 108V303Q670 326 668 348T658 387T636 414T597 424Q584 424 568 418T536 404T506 385T482 367V108Q482 88 484 76T493 56T515 47T554 45V-3Q529
-2 497 -2T432 -1T366 -2T309 -4V45Q332 45 345 47T366 56T375 75T377 108V303Q377 327 375 348T365 387T343 414T304 424Q294 424 279 418T248 403T215 383T189 362V108Q189 88 191 76T200 56T222 47T259 45V-3Q233 -2 202 -2T137 -1T71 -2T12 -4V45Q37 45 51
47T72 56T82 75T84 108V340Q84 364 83 378T76 399T59 408T26 410V450Q62 455 89 465T140 498H195Z" />
<glyph unicode="n" glyph-name="n" horiz-adv-x="575" d="M191 498Q188 472 187 453T186 421Q206 439 224 453T261 476T303 492T354 499Q391 499 416 487T457 453T479 403T486 342V111Q486 91 488 78T498 58T520 48T558 45V-2Q540 -2 506 -2T435 -1T364 -2T312
-4V45Q335 45 348 47T369 57T379 77T381 110V341Q381 390 363 407T303 424Q292 424 277 418T244 404T212 385T186 366V110Q186 90 188 78T198 58T220 48T258 45V-4Q240 -3 206 -2T134 -1T63 -2T11 -4V45Q34 45 48 47T69 57T79 78T81 111V340Q81 364 80 378T73 399T56
408T23 410V450Q59 455 85 465T137 498H191Z" />
<glyph unicode="o" glyph-name="o" horiz-adv-x="575" d="M542 243Q542 190 523 143T469 60T388 3T290 -18Q236 -18 188 0T105 52T48 133T27 238Q27 290 45 337T97 421T175 478T275 499Q332 499 381 481T466 429T522 348T542 243ZM423 231Q423 266 415 305T390
376T345 430T280 451Q244 451 218 432T176 384T153 319T145 249Q145 217 153 179T178 108T222 53T288 31Q324 31 349 50T391 98T415 163T423 231Z" />
<glyph unicode="p" glyph-name="p" horiz-adv-x="575" d="M198 498Q195 468 195 460T193 432Q207 445 221 456T252 477T291 493T339 499Q385 499 422 479T487 425T528 349T543 264Q543 208 524 157T469 67T383 5T272 -18Q259 -18 246 -16T222 -11T202 -4T193 1V-134Q193
-154 195 -166T207 -184T236 -193T289 -195V-245Q268 -244 228 -243T145 -242T63 -243T3 -245V-195Q32 -195 49 -193T74 -185T85 -166T87 -131V340Q87 364 86 378T79 399T62 408T29 410V450Q65 455 92 465T143 498H198ZM193 97Q198 88 206 77T226 57T254 41T294
35Q329 35 356 52T401 96T428 156T438 223Q438 263 431 299T406 363T363 407T298 423Q286 423 270 418T239 404T211 388T193 373V97Z" />
<glyph unicode="q" glyph-name="q" horiz-adv-x="575" d="M386 -136V28Q379 22 367 15T333 -1T291 -14T249 -18Q198 -18 157 1T87 52T43 126T27 213Q27 273 50 325T110 416T195 477T293 499Q330 499 359 490T411 467L439 505H495Q493 473 493 441T492 389V-132Q492
-152 494 -164T502 -183T523 -192T561 -195V-244Q535 -243 501 -242T431 -241T362 -243T306 -245V-195Q334 -195 350 -193T374 -185T384 -168T386 -136ZM386 82V362Q386 374 379 388T358 415T324 436T280 445Q262 445 237 437T190 406T152 345T136 246Q136 205
145 171T173 110T221 70T291 55Q301 55 314 57T341 63T366 72T386 82Z" />
<glyph unicode="r" glyph-name="r" horiz-adv-x="395" d="M191 410Q207 433 219 447T244 473T276 491T313 499Q325 499 338 495T363 483T381 463T389 433Q389 408 369 390T324 372Q306 372 295 376T277 385T264 394T253 398Q245 398 235 392T215 376T198 350T191
316V111Q191 88 193 75T207 55T240 47T300 45V-4Q274 -3 235 -2T155 -1T74 -1T7 -4V45Q35 45 51 46T75 54T84 73T86 111V340Q86 364 85 378T78 399T61 408T28 410V450Q64 455 91 465T142 498H197Q196 485 195 473T193 447T192 425T191 410Z" />
<glyph unicode="s" glyph-name="s" horiz-adv-x="395" d="M25 160H84Q88 135 95 112T115 72T144 45T186 34Q229 34 244 54T260 100Q260 121 253 136T233 162T203 183T164 205Q107 234 71 269T34 356Q34 383 45 408T79 454T133 486T205 499Q237 499 268 491T337
463L344 341H288Q280 399 257 422T196 445Q167 445 146 430T125 385Q125 364 135 349T161 322T199 298T243 276Q265 266 287 255T326 228T355 190T366 134Q366 106 355 79T321 30T263 -5T179 -18Q143 -18 107 -8T40 22L25 160Z" />
<glyph unicode="t" glyph-name="t" horiz-adv-x="336" d="M175 407V137Q175 110 178 93T186 67T199 54T214 50Q220 50 230 53T253 61T280 76T307 97L336 55Q304 22 266 2T184 -18Q130 -18 100 10T70 87V407H1V441Q53 455 77 490T112 591H175V471H332V407H175Z" />
<glyph unicode="u" glyph-name="u" horiz-adv-x="575" d="M380 -2V59Q350 26 308 5T206 -18Q184 -18 162 -11T121 13T92 55T81 115V385Q81 401 80 410T72 425T53 432T18 436V475Q52 476 97 478T190 485Q188 462 187 433T186 387V171Q186 133 189 111T200 76T219
60T248 56Q277 56 315 73T381 118V385Q381 401 378 410T367 424T345 432T308 436V475Q342 476 392 478T490 485Q488 462 487 433T486 387V86Q486 73 487 66T495 55T516 52T555 55V15Q543 12 526 9T491 1T454 -9T422 -19Q405 -26 393 -17T380 -2Z" />
<glyph unicode="v" glyph-name="v" horiz-adv-x="515" d="M228 -18L84 358Q73 387 66 402T52 425T33 434T2 435V485Q20 483 52 483T119 482T187 482T238 485V435Q211 435 196 434T176 426T175 406T188 367L267 153L353 369Q362 391 366 404T367 424T351 432T314
434V485Q336 483 362 483T415 482T466 483T507 485V435Q490 435 479 433T460 422T445 400T428 361L274 -18H228Z" />
<glyph unicode="w" glyph-name="w" horiz-adv-x="814" d="M232 -16L82 359Q74 383 67 398T51 421T30 432T0 435V485Q19 483 49 483T113 482T178 482T230 484V435Q188 435 179 426T177 391L272 144L358 369Q366 395 352 413T291 434V485Q316 483 347 483T410 482T473
482T529 484V434Q506 433 494 431T476 423T471 406T477 376L563 145L654 379Q662 397 664 407T662 424T643 432T605 435V485Q652 482 707 482T807 484V435Q788 435 776 431T754 419T739 397T725 366L572 -16H523L404 290L282 -16H232Z" />
<glyph unicode="x" glyph-name="x" horiz-adv-x="575" d="M280 179L184 67Q169 47 172 45H224V-4Q200 -3 172 -2T115 -1T57 -2T4 -4V45Q28 45 44 46T74 52T101 68T129 97L240 229L114 391Q97 411 77 422T24 434V483Q49 482 79 482T142 481T205 481T264 483V435Q221
435 215 430T225 398L301 301L388 404Q400 422 394 428T349 435V485Q400 482 457 482T566 483V435Q543 435 527 433T498 424T474 408T452 383L340 252L470 85Q480 73 488 65T506 53T530 47T566 45V-2Q528 -2 497 -1T438 0Q409 0 380 0T315 -2V45Q361 45 368 49T364
71L280 179Z" />
<glyph unicode="y" glyph-name="y" horiz-adv-x="515" d="M211 38Q201 62 189 94T162 162T134 232T107 299T85 356T70 395Q62 418 49 427T0 436V484Q19 483 53 483T123 482T191 482T238 483V436Q216 434 203 432T184 426T178 414T180 396L266 173L354 389Q365
415 356 425T310 435V484Q326 483 354 483T411 482T467 483T508 485V435Q489 435 477 432T457 422T442 403T428 374L193 -183Q186 -199 174 -211T146 -231T113 -243T79 -247Q52 -247 31 -229T9 -186Q9 -164 25 -146T67 -125Q80 -124 98 -128T127 -143Q134 -147
139 -137L211 38Z" />
<glyph unicode="z" glyph-name="z" horiz-adv-x="455" d="M141 51H278Q301 51 316 53T343 66T364 96T387 153H444L408 -2Q363 -1 312 -1T207 0T102 0T5 -2V19L285 429H183Q164 429 150 428T125 419T103 396T84 351H28L45 485Q83 483 132 482T234 481T339 481T435
484L141 51Z" />
<glyph unicode="{" glyph-name="braceleft" horiz-adv-x="374" d="M279 713V494Q279 439 260 411T213 372Q243 357 261 330T279 246V32Q279 6 282 -11T296 -39T325 -55T374 -63V-101Q318 -101 280 -93T219 -66T187 -17T177 55V254Q177 297 158 323T93 361V385Q176
404 176 487V706Q176 778 224 811T375 844L376 803Q346 803 328 799T298 784T283 756T279 713Z" />
<glyph unicode="|" glyph-name="bar" horiz-adv-x="514" d="M305 -60H203V818H305V-60Z" />
<glyph unicode="}" glyph-name="braceright" horiz-adv-x="374" d="M93 32V246Q93 303 110 330T158 372Q132 383 113 411T93 494V713Q93 738 89 755T75 783T45 798T-3 803V844Q99 844 147 811T196 706V487Q196 445 215 420T279 385V361Q233 350 214 324T195 254V55Q195
13 186 -17T153 -65T93 -92T-1 -101V-63Q29 -61 47 -56T75 -39T89 -11T93 32Z" />
<glyph unicode="~" glyph-name="asciitilde" horiz-adv-x="737" d="M624 464L681 442Q673 406 658 374T620 318T566 280T494 266Q447 266 410 285T343 326T288 368T238 387Q196 387 165 356T108 263L50 292Q62 326 80 358T124 414T181 454T253 470Q290 470 323
451T387 409T448 366T510 347Q527 348 543 353T573 371T600 406T624 464Z" />
<glyph unicode="&#xa0;" glyph-name="nbspace" horiz-adv-x="307" />
<glyph unicode="&#xa1;" glyph-name="exclamdown" horiz-adv-x="973" d="M535 242Q542 193 549 145T556 41Q556 22 553 4T541 -28T520 -52T485 -61Q463 -61 449 -52T427 -29T415 4T412 43Q412 97 418 144T429 240Q433 283 436 329T442 417T445 496T447 557H516Q516
533 516 497T519 418T525 330T535 242ZM483 625Q450 625 428 646T406 697Q406 726 428 747T483 769Q499 769 513 763T537 748T554 725T560 697Q560 668 538 647T483 625Z" />
<glyph unicode="&#xa4;" glyph-name="currency" horiz-adv-x="973" d="M726 647L857 763L913 705L773 590Q806 551 825 500T844 382Q844 315 824 261T769 167L910 39L857 -15L720 111Q682 73 621 48T482 23Q404 23 345 46T248 107L107 -18L52 39L194 166Q160 206
141 260T121 382Q121 447 139 497T186 588L55 704L109 763L238 648Q276 689 338 715T482 741Q562 741 625 715T726 647ZM769 382Q769 443 746 497T684 591T593 654T482 677Q423 677 371 654T280 591T219 497T196 382Q196 320 218 267T280 174T371 111T482 88Q541
88 593 111T684 173T746 266T769 382Z" />
<glyph unicode="&#xa7;" glyph-name="section" horiz-adv-x="973" d="M537 512Q560 487 583 462T624 409T652 353T659 292Q656 269 647 253T626 227T601 211T576 204Q579 201 593 181T619 127T632 50T608 -44Q588 -83 554 -101T482 -121T405 -106T341 -58Q321
-34 317 -13T320 25Q327 44 350 51T396 49Q410 42 417 31T426 8T427 -17T421 -41Q438 -65 466 -66T520 -32Q534 -14 535 12T529 68T504 125T462 175Q430 203 397 236T340 305T308 379T317 455Q325 471 337 482T362 499T387 509T408 512Q401 519 389 534T365 569T344
614T332 666Q329 709 338 741T366 794T413 827T474 840Q522 842 555 825T608 781Q618 769 624 756T632 730T628 705T609 685Q586 671 568 677T537 698T518 733T515 767Q517 778 504 785T471 790Q452 788 433 767T413 703Q413 683 420 664T439 627T464 593T491 561Q512
537 537 512ZM539 253Q561 256 568 269T573 300T562 336T543 369Q531 387 516 402T487 430T460 449T438 459Q414 462 402 451T388 422T395 380T422 337Q462 286 492 268T539 253Z" />
<glyph unicode="&#xa8;" glyph-name="dieresis" horiz-adv-x="973" d="M634 883Q650 883 665 877T691 861T709 836T716 806Q716 791 709 777T691 751T664 734T633 727Q615 727 600 734T574 752T557 778T550 808Q550 839 575 861T634 883ZM337 883Q353 883 368
877T394 861T412 836T419 806Q419 791 412 777T394 751T367 734T336 727Q318 727 303 734T276 752T259 778T252 808Q252 839 277 861T337 883Z" />
<glyph unicode="&#xa9;" glyph-name="copyright" horiz-adv-x="973" d="M678 578L685 456H634Q623 520 594 544T508 569Q471 569 439 554T382 512T344 447T330 361Q330 310 345 269T386 198T446 153T519 137Q566 137 593 168T634 256H690L669 129Q657 121 637
114T595 102T549 93T508 89Q448 89 398 108T312 164T256 249T236 359Q236 415 258 462T319 544T405 598T507 617Q552 617 595 606T678 578ZM483 18Q551 18 610 43T714 113T784 222T810 361Q810 437 785 498T715 603T611 669T483 693Q414 693 354 670T250 603T181
499T156 361Q156 285 181 222T250 114T354 43T483 18ZM483 756Q565 756 637 727T764 646T850 521T882 361Q882 274 851 200T765 71T638 -13T483 -44Q400 -44 327 -14T199 71T113 199T81 361Q81 448 112 520T199 645T327 727T483 756Z" />
<glyph unicode="&#xaa;" glyph-name="ordfeminine" horiz-adv-x="973" d="M132 2V48H845V2H132ZM556 346V480Q518 472 493 463T446 443Q424 434 405 421T373 390T353 352T350 309Q358 269 380 253T436 242Q459 246 482 255T529 281Q540 290 548 311T556 346ZM556
228Q538 214 494 198T381 182Q352 182 328 190T286 213T257 246T243 283Q239 312 244 336T262 379T293 415T334 445Q376 470 431 489T556 526V573Q556 621 535 647T461 673Q444 673 423 668T387 650Q386 648 382 637T379 620Q383 606 381 591T371 564T346 545T305
541Q284 545 275 558T266 589T279 627T314 666Q340 690 381 701T473 713Q535 713 575 694T637 643Q651 619 655 590T660 531V297Q660 274 661 263T667 250T683 257T715 284L745 243Q737 234 727 224T704 206T675 192T640 186Q620 186 604 192T578 205T562 219T556
228Z" />
<glyph unicode="&#xab;" glyph-name="uniE217" horiz-adv-x="973" d="M199 362L758 -65L729 -103L112 362L729 828L758 790L199 362ZM389 362L848 9L819 -34L302 362L819 758L849 719L389 362Z" />
<glyph unicode="&#xad;" glyph-name="uni00AD" horiz-adv-x="973" d="M654 234H308V307H654V234Z" />
<glyph unicode="&#xae;" glyph-name="registered" horiz-adv-x="973" d="M484 15Q552 15 612 40T716 111T786 220T812 360Q812 435 787 497T717 602T612 670T484 694Q415 694 355 670T251 603T181 497T155 360Q155 284 180 221T250 112T355 41T484 15ZM484 752Q566
752 638 723T765 642T850 518T882 360Q882 273 851 199T765 72T639 -12T484 -43Q401 -43 329 -13T202 71T117 199T85 360Q85 446 116 518T202 642T328 723T484 752ZM710 159V115H621Q620 115 616 115T606 115T594 121T583 137Q576 157 565 183T539 237Q525 265
514 290T492 334Q486 342 482 345T468 348H426Q421 348 421 348T420 342V205Q420 188 421 179T425 166Q428 163 438 161T473 158V115H296V158Q318 158 328 160T342 166Q344 169 345 178T347 205V524Q347 543 346 552T342 563Q340 565 330 566T296 567V612H507Q573
612 605 574Q642 540 642 482Q642 459 636 441T613 405Q599 386 583 375T555 362Q557 360 558 359T563 355T570 344T582 324L646 203Q651 192 658 181T671 167Q676 164 684 162T710 159ZM420 389H461Q486 389 506 394T540 410Q552 421 559 438T567 477Q567 497
562 516T547 547Q538 557 519 563T477 569H432Q423 569 422 567T420 555V389Z" />
<glyph unicode="&#xb0;" glyph-name="degree" horiz-adv-x="973" d="M235 831Q262 831 286 821T327 794T355 753T366 703Q366 677 356 654T328 613T286 585T235 574Q206 574 182 584T139 612T111 653T101 703Q101 729 111 752T139 793T181 821T235 831ZM234 646Q254
646 270 662T286 703Q286 727 270 744T234 761Q213 761 197 744T181 703Q181 678 197 662T234 646Z" />
<glyph unicode="&#xb1;" glyph-name="plusminus" horiz-adv-x="973" d="M525 377V118H438V377H166V452H438V701H525V452H789V377H525ZM166 -9V64H789V-9H166Z" />
<glyph unicode="&#xb2;" glyph-name="twosuperior" horiz-adv-x="973" d="M14 530V561Q29 576 46 593T78 628T107 660T127 684Q142 702 154 724T167 767Q167 785 157 800T124 815Q107 815 90 801T61 748L12 754Q17 776 26 796T51 831T86 855T134 864Q157 864 176
857T210 836T233 806T241 769Q241 755 236 741T224 713T208 689T193 668Q170 641 151 619T114 576H178Q185 576 189 576T198 580T206 590T218 609H264L232 530H14Z" />
<glyph unicode="&#xb3;" glyph-name="threesuperior" horiz-adv-x="973" d="M184 719Q211 709 228 688T245 640Q245 591 215 565T138 528Q117 525 97 525T62 530T36 542T26 562Q26 570 32 582T56 595Q76 595 88 590T108 579Q122 571 125 572Q141 573 155 587T170
624Q172 659 152 674T71 681L72 718Q114 723 133 742T152 785Q152 803 145 810T125 817Q110 817 96 807T67 768L18 769Q32 816 62 841T134 867Q153 867 170 862T200 846T220 821T228 790Q228 772 217 753T184 719Z" />
<glyph unicode="&#xb4;" glyph-name="acute" horiz-adv-x="973" d="M607 918Q623 902 622 886T607 859Q595 848 571 835T516 809T450 784T382 763Q366 758 358 761T360 774Q379 794 403 817T450 860T492 896T520 919Q539 933 563 936T607 918Z" />
<glyph unicode="&#xb6;" glyph-name="paragraph" horiz-adv-x="973" d="M787 -112H701V813H787V-112ZM592 -112H507L505 374L440 372Q380 371 332 386T251 431T199 501T180 592Q180 689 242 746T423 811Q452 812 469 812T503 813T539 813T592 812V-112ZM505 451V741H462Q419
741 384 731T323 703T284 657T270 594Q270 560 283 533T321 486T379 457T451 449L505 451Z" />
<glyph unicode="&#xb7;" glyph-name="middot" horiz-adv-x="296" d="M151 459Q168 459 183 453T209 436T226 411T233 380Q233 364 227 350T209 325T183 308T151 302Q113 302 90 325T67 380Q67 412 90 435T151 459Z" />
<glyph unicode="&#xb8;" glyph-name="cedilla" horiz-adv-x="973" d="M542 -43Q561 -57 571 -74T581 -118Q581 -141 570 -161T541 -197T497 -222T445 -232Q439 -232 433 -232T417 -229T393 -222T357 -209L370 -168Q394 -173 406 -174T427 -175Q445 -175 457 -164T469
-138Q469 -118 454 -108T395 -97L461 45H583L542 -43Z" />
<glyph unicode="&#xb9;" glyph-name="onesuperior" horiz-adv-x="973" d="M51 820L174 882V597Q174 587 175 582T180 573T195 570T223 568V531H54V569Q71 569 81 570T96 573T102 580T104 594V780Q104 788 104 792T99 795T83 789T51 773V820Z" />
<glyph unicode="&#xba;" glyph-name="ordmasculine" horiz-adv-x="973" d="M484 724Q541 724 587 703T666 646T717 561T735 457Q735 403 717 354T667 268T588 210T484 188Q427 188 381 209T302 267T252 352T234 455Q234 510 251 558T302 644T381 702T484 724ZM132
4V50H845V4H132ZM484 236Q521 236 548 254T594 302T622 373T631 457Q631 501 622 541T594 611T548 660T484 678Q448 678 421 660T375 612T348 541T339 457Q339 413 348 373T375 303T421 254T484 236Z" />
<glyph unicode="&#xbb;" glyph-name="uniE218" horiz-adv-x="973" d="M764 362L203 790L233 828L850 362L233 -103L203 -65L764 362ZM574 362L112 719L142 758L662 362L141 -34L113 9L574 362Z" />
<glyph unicode="&#xbc;" glyph-name="onequarter" horiz-adv-x="973" d="M700 320H772V32H845V-22H772V-134H676V-22H496V17L700 320ZM676 167L583 32H676V167ZM137 788L303 872V483Q303 468 304 460T313 449T333 444T369 442V398H142V443Q162 443 175 444T195
449T205 460T208 481V752Q208 759 205 762T195 765T174 757T137 738V788ZM113 -87L60 -56L847 821L898 784L113 -87Z" />
<glyph unicode="&#xbd;" glyph-name="onehalf" horiz-adv-x="973" d="M113 -87L60 -56L847 821L898 784L113 -87ZM137 788L303 872V483Q303 468 304 460T313 449T333 444T369 442V398H142V443Q162 443 175 444T195 449T205 460T208 481V752Q208 759 205 762T195
765T174 757T137 738V788ZM529 -128V-96Q549 -76 572 -51T618 -2T659 43T687 77Q695 87 705 101T724 132T739 166T745 198Q745 224 729 246T680 268Q668 268 655 263T629 247T604 217T584 170L526 183Q533 211 545 236T578 280T626 310T691 322Q722 322 749 312T795
285T826 246T838 197Q838 179 831 160T814 123T791 89T768 61Q737 23 708 -11T651 -76H756Q765 -76 771 -75T783 -70T795 -56T811 -31H866L828 -128H529Z" />
<glyph unicode="&#xbe;" glyph-name="threequarters" horiz-adv-x="973" d="M304 651Q348 640 375 612T402 545Q402 514 391 490T359 447T312 416T251 397Q224 392 197 393T149 399T115 415T101 441Q101 452 110 464T145 476Q170 476 186 470T212 455Q223 448
227 447T237 446Q259 447 281 467T304 524Q304 551 298 568T276 596T234 608T166 606L167 649Q221 660 250 687T279 747Q279 774 268 786T238 798Q218 798 195 783T156 731H94Q108 787 149 820T250 854Q276 854 299 847T340 826T368 794T378 754Q378 728 360 702T304
651ZM700 320H772V32H845V-22H772V-134H676V-22H496V17L700 320ZM676 167L583 32H676V167ZM130 -88L76 -56L861 821L913 784L130 -88Z" />
<glyph unicode="&#xbf;" glyph-name="questiondown" horiz-adv-x="973" d="M585 156Q585 174 597 190T629 211Q648 215 664 210T691 194T709 169T716 140Q717 98 700 63T652 3T581 -35T495 -49Q448 -49 408 -37T338 -1T291 59T274 143Q274 165 283 191T307 243T341
296T380 347Q419 398 439 450T459 569H525Q529 502 514 448T461 336Q448 318 435 296T410 248T391 196T384 143Q385 66 418 30T498 -6Q523 -6 545 2T583 22T608 51T618 86Q618 95 613 101T602 114T590 130T585 156ZM495 630Q462 630 440 651T417 701Q417 730 439
751T495 773Q511 773 525 767T549 752T566 729T572 701Q572 672 550 651T495 630Z" />
<glyph unicode="&#xc6;" glyph-name="AE" horiz-adv-x="973" d="M433 0V46Q458 46 472 47T494 54T504 68T506 95L507 235H281L177 89Q166 73 162 64T163 51T183 47T227 46L213 0H-10L2 46Q21 46 34 48T60 57T84 77T113 115L491 664Q497 675 498 682T494 693T470
698T422 700L441 749L888 748L906 529L847 530Q836 590 826 624T796 675T741 696T645 700Q625 700 620 700T610 696Q606 694 605 686T604 671V395Q654 395 682 396T726 408T745 438T749 497L809 498V237L748 236Q748 278 745 298T728 329Q714 338 685 340T604 342V78Q604
69 604 61T616 52Q692 52 735 55T802 74T841 122T875 212H934L887 0H433ZM506 563L316 287H506V563Z" />
<glyph unicode="&#xd0;" glyph-name="Eth" horiz-adv-x="973" d="M225 377V614Q225 642 221 660T204 688T169 703T112 709V749H404Q482 749 552 737T673 698Q772 647 815 565T859 375Q859 322 845 270T803 173T732 93T632 37Q587 22 534 12T413 1H112V41Q149 43
171 46T205 59T221 85T225 134V324H103V377H225ZM331 377H580V324H331V85Q331 69 333 61T342 49T357 45T381 44Q447 44 508 53T608 85Q639 102 665 131T709 199T737 281T747 372Q747 414 739 455T716 533T681 598T635 647Q584 684 519 696T382 708Q369 708 360
708T344 703T334 691T331 666V377Z" />
<glyph unicode="&#xd7;" glyph-name="multiply" horiz-adv-x="973" d="M716 60L476 300L240 61L179 121L419 360L177 602L238 663L478 421L717 662L774 602L537 361L774 121L716 60Z" />
<glyph unicode="&#xd8;" glyph-name="Oslash" horiz-adv-x="973" d="M735 652Q787 598 813 527T840 371Q840 292 814 222T740 98T627 13T483 -19Q422 -19 368 -1T286 44L218 -45L166 2L233 92Q182 146 157 216T131 371Q131 450 157 521T229 647T341 733T484 765Q549
765 601 747T683 703L749 790L806 748Q801 742 790 728T768 698T747 669T735 652ZM288 164L637 642Q608 674 570 691T483 709Q428 709 384 683T309 612T260 505T243 371Q243 339 247 308T257 248T272 198T288 164ZM682 581L332 105Q363 71 401 52T485 33Q541 33
586 58T663 129T712 237T729 371Q729 404 725 436T714 497T699 547T682 581Z" />
<glyph unicode="&#xde;" glyph-name="Thorn" horiz-adv-x="973" d="M469 526H364V214H469Q504 214 535 223T589 253T625 303T639 376Q639 419 627 447T593 493T539 518T469 526ZM448 44L447 1H182V46Q210 46 226 48T251 58T262 79T265 114V647Q265 667 263 678T252
695T227 702T181 704L182 751H447V704Q420 704 404 702T379 694T367 678T364 650V572H507Q562 572 606 558T681 519T729 458T746 378Q746 333 730 294T684 227T612 182T518 166H364V109Q364 89 366 77T377 57T402 47T448 44Z" />
<glyph unicode="&#xdf;" glyph-name="germandbls" horiz-adv-x="973" d="M395 364V424Q400 424 408 424T426 424T444 423T459 423Q477 422 501 427T552 452Q572 470 584 501T597 568Q597 629 566 667T480 706Q459 706 440 694T406 662T384 614T375 556V97Q398
72 436 53T519 37Q541 38 561 50T596 85T621 138T630 207Q630 248 617 278T582 328T531 357T471 367Q466 367 456 367T435 366T413 365T395 364ZM375 22Q375 11 366 6T330 0H214V49Q240 49 252 49T270 55Q275 58 276 72T277 109V549Q277 593 291 632T332 700T396
747T481 764Q525 764 566 751T638 713T688 652T707 568Q707 505 678 465T595 399Q663 376 700 326T738 203Q738 156 722 116T675 45T604 -2T514 -19Q491 -19 468 -15T427 -5T394 8T375 22Z" />
<glyph unicode="&#xe6;" glyph-name="ae" horiz-adv-x="973" d="M737 278Q751 278 753 281T756 306Q756 334 749 358T728 402T694 432T646 443Q616 443 595 428T559 390T537 337T526 278H737ZM390 93Q415 124 420 157T426 238Q396 236 358 231T286 213T229 176T206
112Q206 74 228 56T284 37Q312 37 343 53T390 93ZM807 142L859 119Q846 88 828 62T783 17T723 -12T646 -23Q611 -23 581 -14T527 10T488 40T466 72Q455 54 433 37T383 7T322 -15T257 -23Q227 -23 199 -16T149 7T114 47T101 106Q101 143 119 171T165 219T229 252T301
274T370 286T426 291V368Q426 412 396 429T320 446Q303 446 280 439T245 415Q240 407 247 398T263 378Q266 369 268 366T270 353Q269 326 249 310T201 293Q163 293 147 314T130 363Q130 398 153 424T205 468Q239 485 272 491T341 497Q380 496 409 489T458 473T489
454T503 437Q507 444 519 454T550 473T594 490T649 497Q703 497 742 476T806 422T844 346T859 261V251Q859 243 853 235T831 226H525Q525 182 534 146T561 84T606 44T670 31Q711 33 748 64T807 142Z" />
<glyph unicode="&#xf0;" glyph-name="eth" horiz-adv-x="973" d="M350 220Q350 173 359 136T386 72T426 31T477 16Q504 16 526 30T565 72T591 136T601 220Q601 264 592 301T565 366T525 409T476 425Q450 425 427 410T387 367T360 303T350 220ZM309 739L348 777Q405
753 442 728T506 676L635 743L678 689L554 624Q594 583 624 535T675 434T706 330T717 230Q717 170 700 122T652 41T575 -10T473 -28Q419 -28 374 -10T296 40T246 119T228 221Q228 272 246 317T296 396T371 450T467 470Q483 470 500 469T532 465T558 459T573 452Q571
459 563 474T543 508T517 549T487 591L314 505L279 561L444 643Q412 676 380 699T309 739Z" />
<glyph unicode="&#xf7;" glyph-name="divide" horiz-adv-x="973" d="M483 703Q519 703 542 680T566 624Q566 609 559 595T541 571T515 554T484 548Q466 548 451 554T425 571T408 596T402 626Q402 641 408 655T426 679T452 696T483 703ZM167 335V410H798V335H167ZM484
196Q519 196 542 174T566 119Q566 104 559 90T541 65T515 48T484 41Q466 41 451 47T425 65T408 91T402 121Q402 136 409 149T427 173T453 190T484 196Z" />
<glyph unicode="&#xf8;" glyph-name="oslash" horiz-adv-x="973" d="M595 474L650 561L712 519L659 435Q698 403 721 354T744 243Q744 190 725 143T671 61T591 5T493 -16Q461 -16 432 -10T385 6L328 -82L263 -38L318 47Q279 79 256 127T233 238Q233 290 251 337T302
420T380 476T480 497Q514 497 544 491T595 474ZM372 128L560 420Q530 453 482 453Q446 453 421 435T379 387T355 321T347 250Q347 220 353 186T372 128ZM418 59Q433 45 451 37T493 29Q529 29 554 48T596 98T621 163T629 232Q629 264 623 297T605 352L418 59Z" />
<glyph unicode="&#xfe;" glyph-name="thorn" horiz-adv-x="973" d="M404 20V-13Q404 -33 405 -45T409 -63Q415 -68 430 -69T474 -70V-121H241V-70Q267 -70 281 -70T301 -64Q306 -58 306 -8V504Q306 517 305 524T298 535T277 539T237 540V583L366 597Q390 600 397
593T404 573V465Q404 465 414 471T443 485T485 498T537 504Q580 504 615 488T674 443T711 380T724 305V191Q724 152 711 117T674 54T616 11T539 -6Q521 -6 501 -6T463 -2T430 6T404 20ZM404 370V128Q416 86 449 71T522 55Q540 55 557 63T587 89T609 130T618 187V309Q618
341 610 365T589 406T558 431T523 440Q508 440 491 435T457 421T427 399T404 370Z" />
<glyph unicode="&#xff;" glyph-name="ydieresis" horiz-adv-x="973" d="M799 390Q829 390 844 371T860 330Q860 307 845 289T799 271Q770 271 755 289T740 330Q740 352 755 371T799 390ZM488 390Q518 390 533 371T548 330Q548 307 533 289T488 271Q459 271 444
289T429 330Q429 352 444 371T488 390ZM177 390Q206 390 221 371T236 330Q236 307 221 289T177 271Q148 271 133 289T118 330Q118 352 133 371T177 390Z" />
<glyph unicode="&#x2013;" glyph-name="endash" horiz-adv-x="973" d="M213 319V394H750V319H213Z" />
<glyph unicode="&#x2014;" glyph-name="emdash" horiz-adv-x="973" d="M53 319V394H920V319H53Z" />
<glyph unicode="&#x2018;" glyph-name="quoteleft" horiz-adv-x="296" d="M176 728Q194 733 208 729T232 714T247 690T252 663Q252 637 231 615T175 592Q133 592 111 621T89 690Q89 746 120 790T218 857L243 824Q206 810 186 787T166 733Q166 726 176 728Z" />
<glyph unicode="&#x2019;" glyph-name="quoteright" horiz-adv-x="296" d="M122 706Q104 701 90 705T65 720T50 744T45 771Q45 784 50 797T66 820T90 836T121 843Q164 843 186 814T208 744Q208 688 177 644T78 577L54 610Q131 641 131 701Q131 706 128 707T122 706Z" />
<glyph unicode="&#x201c;" glyph-name="quotedblleft" horiz-adv-x="451" d="M157 727Q176 732 190 728T213 713T228 690T233 663Q233 637 212 615T156 592Q114 592 92 621T70 690Q70 746 101 790T200 857L223 824Q147 795 147 733Q147 728 150 727T157 727ZM328
728Q347 733 361 729T385 714T400 690T405 663Q405 637 384 615T327 592Q285 592 263 621T241 690Q241 746 273 790T371 857L395 824Q318 795 318 733Q318 729 321 728T328 728Z" />
<glyph unicode="&#x201d;" glyph-name="quotedblright" horiz-adv-x="451" d="M289 708Q270 703 256 707T233 722T218 745T213 772Q213 785 218 798T234 821T258 837T290 844Q332 844 354 815T377 745Q377 689 345 645T246 578L222 611Q300 642 300 702Q300 712
289 708ZM118 708Q100 703 86 707T62 722T47 745T42 772Q42 785 47 798T63 821T87 837T118 844Q161 844 183 815T205 745Q205 689 174 645T75 578L51 611Q128 642 128 702Q128 710 118 708Z" />
<glyph unicode="&#x2022;" glyph-name="bullet" horiz-adv-x="973" d="M481 485Q506 485 527 475T564 448Q598 414 598 361Q598 310 564 275Q548 258 527 248T481 238Q455 238 434 248T395 275Q364 310 364 361Q364 414 395 448Q412 465 433 475T481 485Z" />
<glyph unicode="&#x2039;" glyph-name="guilsinglleft" horiz-adv-x="973" d="M839 851V797L208 362L839 -70V-125L122 362L839 851Z" />
<glyph unicode="&#x203a;" glyph-name="guilsinglright" horiz-adv-x="973" d="M123 851L840 362L123 -125V-70L754 362L123 797V851Z" />
</font>
</defs>
</svg>
