<?xml version="1.0" standalone="no"?>
<!DOCTYPE svg PUBLIC "-//W3C//DTD SVG 1.1//EN" "http://www.w3.org/Graphics/SVG/1.1/DTD/svg11.dtd">
<svg xmlns="http://www.w3.org/2000/svg">
<defs >
<font id="NanumMyeongjo" horiz-adv-x="512" ><font-face
    font-family="NanumMyeongjo"
    units-per-em="1024"
    panose-1="2 2 6 3 2 1 1 2 1 1"
    ascent="942"
    descent="-236"
    alphabetic="0" />
<glyph unicode=" " glyph-name="space" horiz-adv-x="307" />
<glyph unicode="!" glyph-name="exclam" horiz-adv-x="379" d="M146 481Q139 531 132 579T125 685Q125 704 128 721T138 753T158 775T188 784Q208 784 220 776T240 753T251 721T254 683Q254 628 248 581T237 483Q232 440 229 394T224 305T220 226T219 167H165Q165
189 165 225T162 304T156 393T146 481ZM190 91Q219 91 239 71T260 22Q260 -7 240 -27T190 -48Q162 -48 142 -28T121 22Q121 50 141 70T190 91Z" />
<glyph unicode="&quot;" glyph-name="quotedbl" horiz-adv-x="328" d="M255 602H210L184 808Q182 823 195 838T230 854Q256 854 270 839T282 808L255 602ZM119 602H72L46 808Q44 823 56 838T93 854Q118 854 131 839T143 808L119 602Z" />
<glyph unicode="#" glyph-name="numbersign" horiz-adv-x="632" d="M450 778H531L485 549H610L600 495H475L436 302H571L558 248H425L377 5H294L343 248H230L180 5H95L145 248H19L32 302H157L197 495H58L70 549H208L256 778H340L293 549H403L450 778ZM282 495L242
302H353L392 495H282Z" />
<glyph unicode="$" glyph-name="dollar" horiz-adv-x="632" d="M116 206Q133 129 169 85T274 35V382Q173 424 129 473T84 594Q84 631 101 662T145 716T207 752T274 766V837H353V765Q395 762 440 746T521 701V574H483Q472 638 440 681T353 730V428Q410 402 450
379T516 330T552 273T562 199Q562 161 547 126T505 63T439 18T353 -2V-104H274V-2Q241 -1 218 2T174 13T131 32T78 61V206H116ZM353 33Q373 35 396 46T438 76T470 120T483 177Q483 212 474 238T448 286T406 323T353 353V33ZM274 729Q254 727 235 716T199 687T173
647T162 602Q162 575 172 552T198 511T234 480T274 457V729Z" />
<glyph unicode="%" glyph-name="uni0025" horiz-adv-x="901" d="M583 16Q533 30 509 59T480 127T489 208T528 295Q544 322 569 347T628 391T699 415T780 411Q822 398 844 374T873 317T871 248T844 172Q821 127 791 93T727 39T657 12T583 16ZM776 369Q755 378 733
375T689 359T647 324T608 273Q588 241 577 207T564 142T571 89T605 59Q630 51 655 58T703 82T745 123T778 174Q792 202 800 232T809 291T803 340T776 369ZM574 636Q533 621 492 620T429 630Q443 591 427 547T376 449Q357 419 332 394T276 352T209 330T131 336Q94
347 71 375T43 442T53 529T108 631Q136 669 174 693T252 727T327 733T386 709Q392 704 396 700T403 693Q406 689 408 687Q432 673 462 669T525 671T591 694T654 740H718L269 14H194L574 636ZM298 694Q284 693 267 685T233 663T201 633T174 600Q151 563 138 526T123
457T133 403T172 373Q188 370 208 375T249 393T292 426T330 474Q343 496 352 521T365 571T370 618T362 655Q346 660 329 670T298 694Z" />
<glyph unicode="&amp;" glyph-name="ampersand" horiz-adv-x="879" d="M488 86Q441 45 382 21T265 -9T156 3T76 62Q41 115 40 167T63 268T138 357T255 430Q238 468 228 508T219 586Q220 621 232 654T266 712T322 753T397 769Q432 769 462 760T513 733T547 690T560
632Q560 594 546 565T503 510T436 463T347 420Q364 383 384 348T425 284Q442 258 461 232T503 179Q523 204 542 234T578 295T606 357T620 414Q621 428 616 435T601 446T578 449T549 450V488H804V451Q774 448 757 446T729 440T712 426T699 400Q675 333 639 269T541
136Q579 96 615 70T679 43Q714 43 747 63T803 132L849 122Q833 62 790 26T686 -11Q632 -12 583 16T488 86ZM275 386Q232 363 198 332T146 262T129 182T159 97Q178 67 210 55T282 45T365 69T450 125Q421 158 396 192T351 258Q334 285 314 318T275 386ZM328 463Q397
496 441 538T486 635Q486 659 479 677T460 707T433 725T402 731Q360 731 330 694T299 589Q299 562 306 530T328 463Z" />
<glyph unicode="&apos;" glyph-name="quotesingle" horiz-adv-x="180" d="M111 603H66L41 809Q39 824 51 839T88 855Q114 855 127 840T139 809L111 603Z" />
<glyph unicode="(" glyph-name="parenleft" horiz-adv-x="374" d="M347 -104Q276 -47 227 10T148 127T104 249T90 376Q90 513 151 635T341 852L368 827Q323 788 288 734T228 620T190 496T177 376Q177 317 189 257T225 138T286 25T372 -76L347 -104Z" />
<glyph unicode=")" glyph-name="parenright" horiz-adv-x="374" d="M6 -76Q55 -30 91 24T152 137T189 256T201 376Q201 433 188 496T151 619T91 734T10 827L37 852Q166 757 227 635T288 376Q288 311 275 249T231 128T151 11T31 -104L6 -76V-76Z" />
<glyph unicode="*" glyph-name="asterisk" horiz-adv-x="654" d="M301 681Q299 692 295 703T289 720Q284 734 277 752T270 790Q270 814 284 829T325 845Q351 845 365 830T380 790Q380 771 374 753T362 720Q360 715 358 703T353 683Q360 689 367 698T378 711Q388
722 401 737T430 761Q451 774 471 769T505 740Q519 717 513 698T484 667Q468 657 449 654T415 647Q409 646 397 644T375 638Q385 633 397 632T416 628Q430 625 449 622T485 608Q506 596 512 576T505 532Q491 509 472 505T430 514Q414 523 402 538T379 564Q375 569
367 579T352 598Q354 587 357 574T362 554Q367 540 373 522T380 484Q380 460 366 445T325 429Q298 429 284 444T270 484Q270 503 277 521T289 554Q291 561 295 574T301 598Q290 588 283 579T270 564Q260 553 248 538T219 514Q197 501 178 505T144 532Q131 555 137
575T164 608Q180 618 199 621T233 628Q241 630 253 633T274 639Q263 643 252 644T234 647Q220 650 201 653T165 667Q143 679 137 698T144 740Q158 763 178 768T219 761Q236 752 248 737T271 711Q276 706 284 698T301 681Z" />
<glyph unicode="+" glyph-name="plus" horiz-adv-x="654" d="M369 355V134H286V355H72V419H286V631H369V419H584V355H369Z" />
<glyph unicode="," glyph-name="comma" horiz-adv-x="280" d="M132 -30Q117 -34 103 -30T79 -16T62 7T55 33Q55 59 74 80T125 101Q163 101 183 74T204 5Q204 -51 174 -94T85 -158L66 -131Q102 -117 122 -93T142 -38Q142 -26 132 -30Z" />
<glyph unicode="-" glyph-name="hyphen" horiz-adv-x="654" d="M75 354V419H580V354H75Z" />
<glyph unicode="." glyph-name="period" horiz-adv-x="280" d="M132 97Q161 97 181 77T202 28Q202 -1 182 -21T132 -42Q103 -42 83 -22T62 28Q62 57 82 77T132 97Z" />
<glyph unicode="/" glyph-name="slash" horiz-adv-x="444" d="M95 -39H17L348 805H427L95 -39Z" />
<glyph unicode="0" glyph-name="zero" horiz-adv-x="550" d="M39 376Q39 453 52 524T94 649T168 735T275 768Q338 768 383 736T457 650T499 525T513 377Q513 299 499 229T456 105T382 19T275 -13Q213 -13 168 18T95 103T53 227T39 376ZM275 33Q309 33 336 58T381
129T408 238T418 376Q418 450 409 514T381 624T336 697T275 724Q241 724 215 698T171 626T144 516T134 377Q134 302 143 239T171 130T216 59T275 33Z" />
<glyph unicode="1" glyph-name="one" horiz-adv-x="550" d="M336 784V119Q336 92 343 78T363 56T397 46T445 43V4H138V44Q161 45 181 46T215 55T238 78T247 121V608Q247 633 245 646T231 661T196 655T130 629V673L336 784Z" />
<glyph unicode="2" glyph-name="two" horiz-adv-x="550" d="M51 35Q83 69 120 113T192 200T257 282T305 343Q322 365 338 392T368 447T390 504T399 559Q399 582 392 608T368 657T325 694T261 709Q232 709 206 696T159 661T122 607T99 541L52 550Q60 593 77 632T123
702T190 750T280 768Q325 768 363 753T428 710T470 645T486 564Q486 531 477 498T452 434T419 375T384 325Q358 290 334 259T286 197T235 135T179 68H378Q402 68 417 69T443 77T463 98T486 137H527L475 4H51V35Z" />
<glyph unicode="3" glyph-name="three" horiz-adv-x="550" d="M461 613Q461 557 428 510T346 430Q375 425 402 409T451 369T485 311T498 240Q498 186 482 146T437 75T367 26T275 -5Q237 -13 200 -12T134 -3T87 20T69 55Q69 71 80 86T117 102Q143 102 163 89T203
65Q223 51 238 47T267 44Q292 45 317 57T363 89T396 138T410 201Q412 302 358 345T182 375V414Q224 423 258 441T316 484T354 538T367 599Q367 653 341 682T266 711Q242 711 219 702T177 676T142 636T120 585L69 588Q79 627 98 660T146 718T210 756T288 770Q323
770 354 759T409 727T447 677T461 613Z" />
<glyph unicode="4" glyph-name="four" horiz-adv-x="550" d="M421 774V260H538V201H421V4H334V201H34V252L360 774H421ZM112 260H333V611L112 260Z" />
<glyph unicode="5" glyph-name="five" horiz-adv-x="550" d="M213 -8Q187 -8 158 -4T104 8T63 29T47 59Q47 78 60 90T98 103Q122 103 142 93T179 72Q193 63 214 55T255 47Q283 48 308 62T351 103T380 166T391 245Q391 357 325 415T123 466Q106 465 96 474T92 501L196
758H484L469 691H239L180 539Q249 541 305 524T401 472T462 388T484 278Q484 220 464 168T407 77T321 15T213 -8Z" />
<glyph unicode="6" glyph-name="six" horiz-adv-x="550" d="M164 439Q190 462 218 474T273 489Q322 494 365 477T441 425T493 343T512 237Q512 184 497 138T454 59T385 6T292 -13Q238 -13 194 11T118 77T69 179T52 310Q52 404 83 487T172 633T312 732T497 770L498
733Q437 730 384 708T287 648T212 557T164 439ZM150 283Q148 235 156 190T184 109T230 53T293 31Q327 31 351 49T391 97T412 163T416 238Q414 278 402 315T370 381T323 424T262 435Q216 429 184 389T150 283Z" />
<glyph unicode="7" glyph-name="seven" horiz-adv-x="550" d="M514 742L285 5H204L413 684H201Q179 684 164 679T135 663T110 636T82 596L42 607L106 758H503L514 742Z" />
<glyph unicode="8" glyph-name="eight" horiz-adv-x="550" d="M485 589Q485 554 476 525T450 471T412 429T366 399Q435 370 472 326T510 209Q510 159 492 118T442 48T366 4T271 -12Q226 -12 186 2T114 43T65 104T46 183Q46 222 58 255T92 316T140 362T196 393Q141
419 105 463T68 580Q68 622 84 657T128 717T196 756T283 770Q320 770 356 759T421 724T467 667T485 589ZM155 589Q155 562 167 537T200 491T250 452T314 423Q353 446 380 486T407 577Q407 614 397 642T370 689T330 719T281 729Q257 729 235 720T195 693T166 649T155
589ZM127 185Q127 149 139 121T172 73T218 43T270 33Q301 33 328 44T377 74T410 122T422 183Q422 226 412 254T380 302T326 337T249 370Q186 343 157 295T127 185Z" />
<glyph unicode="9" glyph-name="nine" horiz-adv-x="550" d="M395 312Q344 270 285 264Q236 259 193 277T118 329T67 411T48 517Q48 570 63 615T106 695T174 748T266 767Q321 767 365 743T441 677T490 575T508 443Q508 349 477 266T387 121T247 22T61 -16L60 20Q188
31 275 106T395 312ZM411 471Q413 519 404 564T375 646T328 703T265 725Q231 725 207 707T168 658T148 591T144 516Q146 476 158 439T190 373T237 329T296 317Q319 321 339 333T375 365T400 411T411 471Z" />
<glyph unicode=":" glyph-name="colon" horiz-adv-x="420" d="M210 228Q239 228 259 208T280 159Q280 130 260 110T210 89Q181 89 161 109T140 159Q140 188 160 208T210 228ZM210 667Q239 667 259 647T280 597Q280 568 260 548T210 527Q181 527 161 547T140 597Q140
626 160 646T210 667Z" />
<glyph unicode=";" glyph-name="semicolon" horiz-adv-x="420" d="M217 112Q202 108 188 112T164 125T147 148T140 174Q140 200 159 221T210 243Q248 243 268 216T289 146Q289 91 259 47T170 -16L151 10Q187 24 207 48T227 103Q227 116 217 112ZM210 667Q239 667
259 647T280 597Q280 568 260 548T210 527Q181 527 161 547T140 597Q140 626 160 646T210 667Z" />
<glyph unicode="&lt;" glyph-name="less" horiz-adv-x="561" d="M506 -105L141 357V385L506 846L557 808L214 372L557 -67L506 -105Z" />
<glyph unicode="=" glyph-name="equal" horiz-adv-x="654" d="M74 459V520H579V459H74ZM74 254V315H579V254H74Z" />
<glyph unicode="&gt;" glyph-name="greater" horiz-adv-x="561" d="M357 372L16 809L67 846L433 386V358L63 -108L16 -68L357 372Z" />
<glyph unicode="?" glyph-name="question" horiz-adv-x="537" d="M170 571Q170 554 159 539T129 520Q113 517 99 521T75 536T59 560T53 589Q52 631 69 665T117 725T186 763T269 777Q314 777 353 765T422 730T467 670T484 586Q484 563 475 537T450 485T416 432T377
381Q337 329 317 276T297 158H246Q243 223 257 277T311 390Q324 408 338 431T363 479T382 532T389 586Q388 664 353 701T266 739Q239 739 215 731T174 710T146 679T136 642Q136 633 141 627T153 613T164 596T170 571ZM269 91Q298 91 318 71T339 22Q339 -7 319 -27T269
-48Q240 -48 220 -28T200 22Q200 50 220 70T269 91Z" />
<glyph unicode="@" glyph-name="at" horiz-adv-x="874" d="M451 1Q359 -1 282 25T151 100T68 218T45 375Q50 455 82 524T167 645T294 728T457 762Q527 764 593 742T711 677T794 575T826 446Q826 381 802 328T740 237T654 179T559 158Q529 158 508 171T479 207Q459
184 427 167T350 150Q300 150 267 169T217 223T199 303T214 401Q227 441 248 477T299 541T365 584T444 600Q490 600 519 583T557 543L570 583H658L539 252Q531 229 539 213T568 199Q600 203 632 223T691 274T734 347T751 438Q751 501 726 553T660 642T566 698T455
717Q384 715 325 688T223 615T153 509T122 379Q116 297 139 235T208 131T318 68T459 45Q498 45 540 53T622 79T700 122T769 181L799 153Q766 120 729 93T650 45T558 14T451 1ZM522 449Q528 467 527 485T519 518T499 543T469 554Q440 556 415 544T370 510T333 460T307
403Q296 372 290 336T287 269T304 215T347 191Q371 189 390 199T425 226T452 265T472 310L522 449Z" />
<glyph unicode="A" glyph-name="A" horiz-adv-x="744" d="M188 139Q170 89 180 66T257 42V6Q233 6 202 6T137 7Q104 7 73 7T17 6V44Q44 44 61 49T90 66Q102 78 111 97T131 146L354 787H393L610 144Q620 114 630 95T653 65Q666 53 683 48T727 41V6Q703 6 668 6T595
7Q557 7 522 7T463 6V42Q495 42 512 45T536 60Q542 70 538 89T524 141L476 284H239L188 139ZM462 329L359 634L254 329H462Z" />
<glyph unicode="B" glyph-name="B" horiz-adv-x="627" d="M392 408Q479 395 536 343T593 210Q593 121 522 64T315 6Q287 6 251 6T175 7Q137 7 100 7T36 6V41Q67 41 85 44T114 56Q124 65 127 82T131 129V638Q131 663 128 678T114 703Q104 712 86 715T36 720V756Q59
755 92 755T160 754Q195 754 228 754T286 756Q329 756 371 747T449 718Q483 697 504 663T526 578Q526 514 489 470T392 408ZM222 421H267Q339 421 387 455T435 578Q435 658 390 686T271 714Q261 714 248 714T222 713V421ZM222 128Q222 99 225 84T238 60Q249 52
269 51T324 49Q403 49 450 85T497 199Q497 292 440 334T291 377H222V128Z" />
<glyph unicode="C" glyph-name="C" horiz-adv-x="745" d="M707 554H670Q655 646 603 687T460 729Q395 729 340 705T244 636Q204 592 181 531T158 395Q158 313 183 246T251 131Q294 84 352 58T477 32Q558 32 606 83T669 214H710L682 43Q665 32 638 22T580 5Q548
-3 516 -7T458 -11Q369 -11 296 17T170 99Q117 152 88 226T59 392Q59 475 92 545T181 666Q237 717 308 745T455 774Q518 774 580 757T696 718L707 554Z" />
<glyph unicode="D" glyph-name="D" horiz-adv-x="806" d="M128 633Q128 660 125 677T111 703Q101 713 82 716T31 720V756Q61 755 99 755T176 755Q216 755 255 755T330 756Q429 756 506 725T636 641Q689 589 717 522T745 382Q745 311 719 243T640 123Q587 70 507
38T318 6Q289 6 252 6T174 7Q135 7 97 7T31 6V44Q63 44 82 47T112 60Q122 70 125 88T128 136V633ZM219 135Q219 105 222 88T239 62Q251 53 274 51T335 49Q417 49 476 76T573 149Q611 195 629 255T647 384Q647 539 556 626T307 713Q289 713 276 713T252 711Q242
711 234 711T219 710V135Z" />
<glyph unicode="E" glyph-name="E" horiz-adv-x="627" d="M223 421H366Q402 421 416 438T430 513H471V266H430Q430 299 428 319T418 350Q411 361 398 364T365 368H223V140Q223 110 227 92T243 64Q256 54 278 52T338 49H412Q450 49 475 54T518 75Q536 89 548 114T573
180H617Q604 139 591 93T568 6Q504 7 435 7T296 8Q227 8 160 8T33 6V42Q64 42 83 46T114 61Q124 71 128 90T132 140V630Q132 660 128 677T114 704Q103 713 84 716T33 719V756Q91 754 156 754T287 753Q353 753 417 753T537 756V586H497Q492 628 486 653T464 692Q450
705 425 709T360 714H223V421Z" />
<glyph unicode="F" glyph-name="F" horiz-adv-x="568" d="M223 142Q223 107 225 88T238 58Q248 48 267 45T319 42V5Q298 5 258 5T175 6Q131 6 92 6T33 5V42Q67 42 86 45T116 59Q126 69 129 89T132 142V630Q132 660 129 677T115 703Q104 712 85 715T33 719V757Q91
755 154 755T283 754Q348 754 412 754T536 757L542 594L499 595Q493 628 487 650T466 687Q452 701 428 707T362 714H223V421H362Q402 421 417 436T435 510H480Q478 490 478 459T477 393Q477 358 477 325T480 271H438Q435 328 421 348T365 368H223V142Z" />
<glyph unicode="G" glyph-name="G" horiz-adv-x="806" d="M731 556H688Q670 648 612 688T464 729Q391 729 335 699T239 621Q201 572 181 511T161 385Q161 316 181 253T242 140Q282 91 339 62T472 32Q506 32 531 37T574 48Q592 55 603 62T621 74V228Q621 276 600
287T525 299V337Q550 336 585 336T658 335Q695 335 729 335T786 337V300Q749 300 731 288T712 228V95L728 78V51Q657 20 594 5T461 -11Q372 -11 298 19T172 103Q119 156 90 227T61 378Q61 462 91 534T174 660Q226 713 297 743T449 774Q520 774 582 758T711 717L731
556Z" />
<glyph unicode="H" glyph-name="H" horiz-adv-x="866" d="M652 425V631Q652 662 649 679T634 706Q624 715 605 717T556 720V758Q576 757 616 757T700 756Q743 756 782 756T839 758V720Q808 719 789 717T760 705Q749 696 746 679T743 631V143Q743 110 746 90T760
60Q771 49 789 46T839 42V5Q821 6 782 6T699 7Q656 7 616 7T556 5V42Q587 42 606 46T635 62Q645 73 648 92T652 143V372H214V143Q214 111 217 91T230 61Q239 50 258 46T309 42V5Q289 5 250 5T168 6Q125 6 86 6T27 5V42Q57 42 76 46T105 61Q116 72 119 91T123 143V628Q123
659 120 677T105 704Q95 714 76 716T27 720V758Q45 756 84 756T166 755Q210 755 249 755T309 758V720Q279 719 260 716T231 704Q221 694 218 676T214 628V425H652Z" />
<glyph unicode="I" glyph-name="I" horiz-adv-x="327" d="M120 629Q120 660 117 678T102 705Q92 714 73 716T24 720V758Q42 756 81 756T163 756Q207 756 246 756T306 758V720Q275 719 256 717T227 705Q217 696 214 678T211 629V143Q211 111 214 92T228 61Q239
50 257 46T306 42V5Q286 5 247 5T165 6Q122 6 83 6T24 5V42Q53 42 72 46T101 61Q112 72 116 91T120 143V629Z" />
<glyph unicode="J" glyph-name="J" horiz-adv-x="387" d="M271 102Q271 -60 221 -140T68 -221Q24 -221 -11 -202T-47 -145Q-47 -126 -37 -111T-5 -93Q17 -91 34 -106T51 -139Q51 -154 58 -166T91 -178Q141 -178 160 -127T180 35V628Q180 659 177 677T162 704Q152
714 133 716T84 720V758Q103 756 142 756T225 756Q268 756 307 756T367 758V720Q336 719 317 717T288 705Q277 695 274 677T271 628V102Z" />
<glyph unicode="K" glyph-name="K" horiz-adv-x="745" d="M609 77Q619 63 635 56T668 46Q685 42 700 42T724 42V6Q710 6 687 6T639 7Q614 7 592 7T557 6L280 392L214 326V142Q214 109 217 90T230 59Q239 49 255 46T299 42V5Q281 5 244 5T164 6Q122 6 84 6T27 5V42Q57
42 75 45T105 59Q115 70 119 89T123 142V627Q123 658 120 676T105 704Q95 713 76 716T27 720V758Q45 757 83 757T162 756Q204 756 240 756T294 758V720Q269 719 254 716T229 704Q220 694 217 676T214 627V391L470 639Q474 643 482 651T498 668Q505 677 511 686T517
701Q517 713 504 716T459 720V758Q476 757 507 756T572 755Q605 755 635 755T682 757V720Q663 720 646 716T608 699Q587 686 562 665T502 609L337 447L609 77Z" />
<glyph unicode="L" glyph-name="L" horiz-adv-x="627" d="M571 6Q523 7 452 8T305 9Q229 9 158 8T38 6V41Q68 41 87 45T116 60Q126 71 129 91T133 145V628Q133 659 130 677T116 705Q106 714 87 716T38 720V758Q56 756 94 756T176 755Q220 755 260 755T321 758V720Q290
719 271 717T241 704Q231 695 228 677T224 628V145Q224 112 231 93T258 64Q277 54 312 52T404 49Q444 49 471 53T518 72Q536 87 549 112T573 180H614L571 6Z" />
<glyph unicode="M" glyph-name="M" horiz-adv-x="1044" d="M527 -1H492L219 590L211 142Q211 87 226 65T292 41V6Q268 6 233 6T159 7Q121 7 86 7T26 5V42Q61 43 84 46T121 61Q136 71 142 91T151 145L162 634Q162 682 141 701T69 720V758Q85 756 108 756T156 755Q180
755 201 755T233 758L525 127L809 757Q821 755 845 755T897 755Q924 755 948 756T983 759V720Q927 720 909 700T890 635L901 145Q902 113 906 93T924 62Q936 50 958 46T1019 42V6Q995 6 952 6T860 6Q812 6 768 6T702 6V42Q736 42 757 46T791 61Q802 72 806 92T811
145L805 609L527 -1Z" />
<glyph unicode="N" glyph-name="N" horiz-adv-x="865" d="M753 -5H707L204 618V143Q204 108 207 88T222 58Q232 47 251 45T301 42V6Q276 6 241 6T167 7Q129 7 94 7T34 5V42Q67 42 88 45T122 58Q135 69 140 88T145 142V624Q145 681 116 700T16 720V757Q28 755 52
755T102 755Q128 755 151 755T185 757L692 144V625Q692 655 689 673T674 702Q664 712 645 715T593 720V758Q612 757 648 757T723 756Q762 756 797 756T851 758V720Q817 720 798 717T768 704Q758 695 756 676T753 625V-5Z" />
<glyph unicode="O" glyph-name="O" horiz-adv-x="865" d="M806 385Q806 311 779 240T703 113Q654 57 586 23T433 -11Q356 -11 288 20T170 105Q119 158 90 228T61 377Q61 451 88 522T164 649Q213 705 282 739T436 774Q512 774 579 742T697 657Q748 603 777 533T806
385ZM701 355Q701 414 684 479T632 601Q598 656 546 692T423 729Q366 729 319 705T237 639Q202 596 184 537T165 408Q165 348 182 282T234 160Q269 104 321 68T445 32Q505 32 552 55T633 122Q666 165 683 224T701 355Z" />
<glyph unicode="P" glyph-name="P" horiz-adv-x="567" d="M213 144Q213 110 216 90T230 59Q241 49 259 46T309 42V6Q282 6 245 6T168 7Q128 7 91 7T26 5V42Q56 42 74 45T104 59Q114 70 118 90T122 144V630Q122 660 119 678T106 705Q96 714 78 717T29 720V756Q50
755 84 755T156 755Q193 755 227 755T282 757Q339 757 387 742T469 698Q503 669 522 630T541 541Q541 492 523 453T475 385Q445 356 406 340T322 322Q300 321 270 321T213 321V144ZM213 372Q237 369 262 368T306 368Q366 370 404 413T443 534Q443 579 428 613T388
669Q363 692 331 703T264 714Q253 714 237 713T213 710V372Z" />
<glyph unicode="Q" glyph-name="Q" horiz-adv-x="865" d="M515 -2Q563 -65 639 -89T833 -103V-138Q768 -151 706 -151T588 -136Q531 -120 484 -89T403 -8Q331 -3 269 30T160 116Q114 169 88 236T61 377Q61 451 88 522T164 649Q213 705 282 739T436 774Q512 774
579 742T697 657Q748 603 777 533T806 385Q806 320 786 258T727 142Q689 90 635 52T515 -2ZM701 355Q701 414 684 479T632 601Q598 656 546 692T423 729Q366 729 319 705T237 639Q202 596 184 537T165 408Q165 348 182 282T234 160Q269 104 321 68T445 32Q505 32
552 55T633 122Q666 165 683 224T701 355Z" />
<glyph unicode="R" glyph-name="R" horiz-adv-x="745" d="M224 356V143Q224 112 227 93T240 62Q250 50 269 46T321 42V5Q301 6 262 6T178 7Q135 7 96 7T38 5V41Q68 41 87 44T116 57Q126 68 129 88T133 143V628Q133 658 129 676T115 704Q105 713 87 716T38 720V757Q62
756 101 756T182 755Q225 755 265 755T333 757Q404 757 450 738T522 689Q548 660 558 627T569 565Q569 529 557 498T524 443Q504 419 478 402T424 377Q442 345 466 308T517 234Q542 197 566 165T610 111Q631 84 660 63T731 42V5Q695 7 649 7T571 5Q543 42 512 87T449
179Q418 226 388 272T334 356H224ZM224 403Q224 403 231 403T247 402Q257 401 267 401T286 401Q337 401 372 415T430 451Q452 474 461 501T471 557Q471 624 432 669T293 714Q270 714 255 714T224 711V403Z" />
<glyph unicode="S" glyph-name="S" horiz-adv-x="520" d="M44 191H87Q93 160 103 131T131 80Q148 58 173 45T234 32Q303 32 347 71T391 169Q391 204 378 229T344 275Q323 294 296 310T240 343Q210 359 179 377T123 421Q98 447 82 480T66 560Q66 614 83 654T132
721Q162 747 204 760T294 774Q312 774 328 772T359 768Q374 766 389 763T421 758L440 612H397Q388 671 361 700T279 729Q210 729 176 691T141 598Q141 563 156 536T195 486Q219 463 249 445T312 412Q342 396 372 379T425 338Q449 315 463 284T478 210Q478 155 456
114T399 45Q364 17 319 3T228 -11Q182 -11 145 -3T68 23L44 191Z" />
<glyph unicode="T" glyph-name="T" horiz-adv-x="685" d="M660 609H617Q616 637 613 656T600 686Q591 698 573 702T524 707H388V144Q388 111 391 92T406 61Q416 50 435 46T484 42V6Q459 6 421 6T342 7Q302 7 264 7T202 5V42Q231 42 249 46T279 61Q289 72 293 91T297
144V707H182Q149 707 128 703T94 688Q81 678 73 659T58 609H14L28 758Q91 755 175 754T348 753Q436 753 520 754T669 758L660 609Z" />
<glyph unicode="U" glyph-name="U" horiz-adv-x="745" d="M736 720Q708 720 692 718T667 706Q658 696 656 678T654 629V247Q654 191 637 144T584 62Q550 28 500 9T383 -11Q257 -11 184 54T108 259V626Q108 657 104 675T90 703Q79 713 61 716T12 720V758Q30 756
69 756T152 755Q195 755 235 755T295 758V720Q264 719 246 716T216 703Q206 694 203 676T199 626V287Q199 158 250 100T411 42Q491 42 543 98T596 247V626Q596 658 594 676T582 704Q573 713 556 715T508 719V758Q524 756 556 756T625 755Q660 755 691 756T736 759V720Z"
/>
<glyph unicode="V" glyph-name="V" horiz-adv-x="746" d="M128 614Q115 647 105 667T81 700Q68 711 50 715T5 720V758Q23 756 60 756T140 756Q181 756 218 756T275 758V719Q245 718 229 715T208 701Q202 691 206 672T223 622L404 131L589 632Q599 662 602 679T599
705Q592 713 576 715T532 719V758Q551 757 581 756T643 755Q674 755 701 755T743 757V720Q722 720 708 717T684 703Q673 693 665 674T645 623L407 -11H370L128 614Z" />
<glyph unicode="W" glyph-name="W" horiz-adv-x="1044" d="M415 -11H377L114 637Q104 659 96 675T77 701Q65 710 48 715T3 720V758Q20 756 57 756T134 756Q174 756 209 756T260 758V720Q212 720 201 706T211 643L416 123L528 369L416 635Q397 681 377 700T305
720V758Q324 756 359 756T433 755Q471 755 504 755T551 758V720Q506 720 499 706T513 640L579 480L650 635Q672 686 664 703T598 720V758Q613 756 642 756T703 756Q734 756 761 756T801 758V720Q762 720 743 692T709 632L607 410L720 134L902 628Q913 658 916 676T914
704Q909 713 894 716T851 720V758Q865 756 892 756T950 756Q979 756 1004 756T1041 758V720Q1022 720 1011 717T992 703Q985 693 978 675T961 625L726 -11H689L557 300L415 -11Z" />
<glyph unicode="X" glyph-name="X" horiz-adv-x="806" d="M238 130Q215 100 205 83T197 57Q200 48 217 45T268 42V6Q245 6 213 6T147 7Q113 7 81 7T25 5V42Q47 42 65 46T101 61Q119 72 138 91T182 143L358 373L160 636Q127 681 101 700T30 720V758Q54 756 91 756T169
755Q209 755 245 755T304 757V720Q247 719 237 707T253 655L413 445L561 639Q599 690 586 705T520 720V758Q540 756 572 756T641 756Q676 756 708 756T762 758V720Q732 720 712 714T674 697Q658 685 643 668T611 627L444 405L655 128Q689 82 716 64T783 41V5Q757
6 723 6T652 7Q617 7 584 7T529 6V43Q579 40 586 50T567 96L389 332L238 130Z" />
<glyph unicode="Y" glyph-name="Y" horiz-adv-x="745" d="M433 133Q433 104 436 87T451 59Q461 49 480 46T529 42V5Q502 6 464 6T386 7Q346 7 309 7T247 5V42Q277 42 295 45T324 59Q334 68 338 86T342 133V367L138 658Q121 678 109 690T85 709Q73 715 59 717T24
719V757Q46 755 80 755T152 755Q189 755 224 755T286 757V720Q240 720 230 709T242 664L408 430L581 667Q602 697 593 708T526 720V758Q546 756 572 756T625 755Q651 755 676 755T722 758V720Q704 719 694 718T675 709Q666 702 656 689T630 654L433 383V133Z" />
<glyph unicode="Z" glyph-name="Z" horiz-adv-x="745" d="M674 6Q617 7 527 8T340 9Q244 9 156 8T15 6L551 704H240Q204 704 182 698T144 678Q129 665 120 644T102 592H55L85 758Q148 755 230 754T398 752Q483 752 563 753T702 757L168 59H449Q507 59 544 65T608
88Q633 105 649 131T683 199H727L674 6Z" />
<glyph unicode="[" glyph-name="bracketleft" horiz-adv-x="374" d="M369 831V782H229Q210 782 206 776T202 749V11Q202 -9 206 -18T233 -28H369V-79H115V831H369Z" />
<glyph unicode="\" glyph-name="backslash" horiz-adv-x="1024" d="M279 758V725Q249 723 229 719T200 704T190 676T199 631L249 478H471L489 532L446 649Q440 668 433 681T413 704T384 717T340 724V758H614V725Q582 725 563 721T534 706T524 677T534 630L586
478H801L842 617Q850 643 853 663T851 696T829 717T781 725V758H1016V726Q973 720 949 705T914 654L859 478H1010V412H840L708 -11H682L534 412H507L356 -11H330L189 412H10V478H168L119 626Q111 652 103 670T82 699T51 716T6 724V758H279ZM270 412L356 147L449
412H270ZM608 412L700 142L781 412H608Z" />
<glyph unicode="]" glyph-name="bracketright" horiz-adv-x="374" d="M271 -79H17V-28H153Q175 -28 179 -19T184 11V749Q184 769 180 775T157 782H17V831H271V-79Z" />
<glyph unicode="^" glyph-name="asciicircum" horiz-adv-x="514" d="M464 652L258 826L55 654L12 691L233 900H286L508 694L464 652Z" />
<glyph unicode="_" glyph-name="underscore" horiz-adv-x="514" d="M1 -144V-84H512V-144H1Z" />
<glyph unicode="`" glyph-name="grave" horiz-adv-x="222" d="M197 628L157 605L34 777Q21 794 23 811T45 841Q65 852 86 845T117 818L197 628Z" />
<glyph unicode="a" glyph-name="a" horiz-adv-x="515" d="M313 242Q213 217 169 190T125 120Q125 77 144 63T199 49Q230 49 261 68T313 110V242ZM487 49Q465 28 439 9T380 -11Q350 -11 333 9T314 54Q293 32 251 11T154 -11Q103 -11 70 20T39 98Q40 137 62 164T121
212Q158 233 207 249T313 282V347Q313 389 294 414T225 439Q189 439 163 418T136 364Q136 339 124 326T90 313Q69 313 61 324T53 354Q53 383 78 407T165 465Q198 483 219 491T269 500Q323 500 361 470T399 382V112Q399 60 416 55T480 82L487 49Z" />
<glyph unicode="b" glyph-name="b" horiz-adv-x="575" d="M190 820Q187 793 186 760T184 703V426Q195 436 212 449T251 474Q272 485 295 493T341 501Q386 501 422 482T485 431Q510 400 524 359T539 273Q539 216 520 165T468 74Q434 35 388 12T285 -11Q234 -11
198 2T140 31L115 -3L82 14Q89 61 93 110T98 208V665Q98 690 96 704T88 726Q81 733 68 734T33 736V766Q66 772 97 785T153 820H190ZM184 129Q184 84 210 55T292 26Q334 26 365 45T417 95Q437 125 447 161T458 232Q458 278 446 316T414 381Q394 408 367 423T310
439Q278 439 243 419T184 374V129Z" />
<glyph unicode="c" glyph-name="c" horiz-adv-x="475" d="M455 105Q413 51 360 20T244 -11Q201 -11 163 8T96 60Q67 93 50 134T33 219Q33 279 52 330T107 420Q141 457 189 479T295 501Q317 501 342 497T388 483Q409 474 423 459T438 422Q438 403 428 389T400 375Q385
375 373 382T348 414Q338 433 316 445T255 457Q221 457 195 438T152 390Q134 362 126 329T117 267Q117 226 127 189T160 123Q182 94 214 77T290 60Q331 60 365 80T427 127L455 105Z" />
<glyph unicode="d" glyph-name="d" horiz-adv-x="575" d="M396 364Q396 391 385 409T357 438Q341 448 322 452T286 457Q257 457 229 444T177 404Q154 377 140 338T126 246Q126 161 170 108T288 55Q298 55 316 60T352 74Q370 83 383 95T396 120V364ZM396 665Q396
690 394 704T386 726Q379 733 366 734T331 736V766Q364 772 395 785T451 820H488Q485 793 484 760T482 703V102Q482 72 495 67T553 64V34Q534 28 498 15T433 -12Q418 -20 407 -15T396 -1V46Q373 23 331 7T244 -10Q197 -10 159 10T94 63Q67 96 53 138T38 227Q38
281 58 331T114 418Q149 456 196 478T298 501Q328 501 350 497T396 480V665Z" />
<glyph unicode="e" glyph-name="e" horiz-adv-x="455" d="M118 298Q117 294 117 275T118 229Q122 155 160 107T262 58Q307 58 341 78T403 131L435 112Q404 58 355 24T243 -11Q198 -11 160 7T93 58Q64 91 49 134T33 229Q33 293 49 343T94 429Q122 464 161 482T247
501Q278 501 310 491T367 459Q392 438 408 406T425 329Q425 318 425 312T421 303Q419 300 413 299T397 298H118ZM315 342Q327 342 331 345T336 362Q336 394 311 425T243 457Q192 457 162 425T124 342H315Z" />
<glyph unicode="f" glyph-name="f" horiz-adv-x="336" d="M331 473V418H197V104Q197 64 217 53T293 42V5Q268 6 232 6T158 7Q120 7 85 7T27 5V42Q74 42 92 56T111 106V418H37V447Q63 450 87 463T111 508Q111 538 115 571T131 638Q141 671 157 700T196 752Q236
794 270 809T323 825Q350 825 366 814T383 778Q383 757 365 747T332 736Q320 736 313 737T298 741Q292 743 285 745T265 747Q248 747 236 737T214 709Q205 693 201 673T197 632V473H331Z" />
<glyph unicode="g" glyph-name="g" horiz-adv-x="515" d="M125 21Q74 43 60 75T54 143Q75 155 94 167T127 192Q88 213 64 244T40 332Q40 403 90 452T239 501Q265 501 288 497T332 487Q352 480 376 474T433 468Q442 468 449 468T462 469Q464 469 467 469T474 470Q478
470 483 471T495 473V414L399 418Q406 408 412 386T418 340Q418 260 364 216T222 171Q216 171 210 171T197 171Q191 171 185 171T171 174Q152 164 145 152T137 126Q137 98 154 88T206 77Q225 77 242 77T278 76Q295 76 311 76T344 76Q411 76 454 47T497 -46Q497
-84 475 -118T416 -178Q378 -205 327 -221T217 -237Q166 -237 128 -225T65 -193Q40 -174 28 -151T16 -105Q16 -59 46 -28T125 21ZM133 343Q133 289 157 250T230 210Q284 210 308 245T332 329Q332 351 326 375T306 418Q294 438 274 450T227 463Q202 463 185 452T155
423Q144 405 139 384T133 343ZM95 -90Q95 -141 135 -166T233 -192Q271 -192 304 -184T363 -161Q388 -146 402 -125T417 -77Q417 -29 373 -12T268 6Q182 6 139 -20T95 -90Z" />
<glyph unicode="h" glyph-name="h" horiz-adv-x="575" d="M92 665Q92 690 90 704T82 726Q75 733 62 734T27 736V766Q60 772 91 785T146 820H184Q181 793 180 760T178 703V412Q205 443 244 472T340 501Q408 501 444 453T481 335V114Q481 76 492 59T554 42V5Q540
5 507 5T438 6Q402 6 370 6T325 5V42Q349 42 363 43T384 52Q391 59 393 73T395 114V274Q395 322 390 352T375 400Q364 417 347 423T304 430Q272 430 236 406T178 351V114Q178 69 189 56T251 42V5Q236 5 204 5T136 6Q100 6 68 6T23 5V42Q68 42 80 55T92 114V665Z"
/>
<glyph unicode="i" glyph-name="i" horiz-adv-x="276" d="M182 103Q182 62 193 52T253 42V6Q239 6 226 6T198 7Q184 7 170 7T142 8Q112 8 83 7T27 6V42Q73 42 84 52T96 103V345Q96 394 87 407T38 421V452Q70 457 98 468T150 500H187Q184 473 183 440T182 383V103ZM136
767Q161 767 179 749T198 706Q198 680 180 663T136 645Q110 645 93 662T75 706Q75 731 92 749T136 767Z" />
<glyph unicode="j" glyph-name="j" horiz-adv-x="276" d="M96 345Q96 394 87 407T38 421V452Q70 456 98 467T150 500H187Q184 473 183 440T182 383V-20Q182 -70 170 -106T136 -166Q114 -190 84 -206T16 -234L5 -205Q56 -181 76 -139T96 -31V345ZM137 767Q162 767
180 749T199 706Q199 680 181 663T137 645Q111 645 94 662T76 706Q76 731 93 749T137 767Z" />
<glyph unicode="k" glyph-name="k" horiz-adv-x="575" d="M317 385Q356 420 356 433T310 447V487Q324 485 354 485T417 484Q450 484 479 484T522 487V447Q499 447 482 443T449 431Q434 423 420 413T390 391L259 280L428 87Q457 54 488 47T551 39V5Q539 5 518 5T473
6Q450 6 429 6T396 5Q388 14 378 26T359 50L203 233L175 209V113Q175 89 177 75T187 53Q194 46 208 44T248 42V5Q232 6 200 6T132 7Q97 7 65 7T19 5V42Q42 42 56 44T77 53Q84 60 86 74T89 113V665Q89 690 87 704T79 726Q72 733 59 734T24 736V766Q57 772 88 785T143
820H181Q178 793 177 760T175 703V266L317 385Z" />
<glyph unicode="l" glyph-name="l" horiz-adv-x="276" d="M96 665Q96 690 94 704T86 726Q79 733 66 734T31 736V766Q64 772 95 785T151 820H188Q185 793 184 760T182 703V113Q182 73 195 58T253 42V5Q232 5 201 5T138 6Q106 6 76 6T27 5V42Q73 42 84 55T96 113V665Z" />
<glyph unicode="m" glyph-name="m" horiz-adv-x="864" d="M186 500Q183 473 182 453T181 420Q202 435 222 450T263 476Q284 487 307 494T358 501Q398 501 429 480T469 420Q511 453 551 477T649 501Q682 501 705 488T744 453Q759 431 766 403T773 345V110Q773 69
785 56T842 42V5Q821 5 792 5T732 6Q700 6 671 6T620 5V42Q664 42 675 55T687 110V309Q687 332 684 354T673 395Q664 413 648 424T603 436Q588 436 570 430T535 414Q517 405 502 394T477 374V110Q477 69 490 56T550 42V5Q529 5 499 5T436 6Q404 6 374 6T324 5V42Q367
42 379 56T391 110V309Q391 332 388 355T377 396Q368 414 352 425T307 436Q295 436 278 430T244 414Q226 404 209 393T181 370V110Q181 69 193 56T252 42V5Q230 5 200 5T138 6Q106 6 76 6T24 5V42Q70 42 82 56T95 110V345Q95 394 86 407T37 421V452Q69 457 97 468T148
500H186V500Z" />
<glyph unicode="n" glyph-name="n" horiz-adv-x="575" d="M183 500Q180 473 179 454T178 421Q201 437 222 451T265 477Q286 488 309 494T358 501Q427 501 454 456T481 347V113Q481 73 494 58T554 42V6Q540 6 508 6T440 6Q404 6 372 6T327 5V42Q370 42 382 57T395
113V348Q395 396 374 416T306 436Q293 435 276 429T240 413Q222 404 206 393T178 373V113Q178 73 191 58T251 42V5Q236 6 204 6T136 7Q100 7 68 7T23 5V42Q67 42 79 57T92 113V345Q92 394 83 407T34 421V452Q66 457 94 468T145 500H183V500Z" />
<glyph unicode="o" glyph-name="o" horiz-adv-x="575" d="M538 247Q538 194 519 147T466 65Q433 30 389 10T293 -11Q241 -11 195 6T113 57Q78 90 58 137T38 242Q38 294 56 341T106 424Q138 459 182 480T280 501Q335 501 382 483T464 432Q498 399 518 352T538 247ZM438
236Q438 271 429 310T402 384Q383 417 354 439T283 462Q243 462 215 442T170 392Q152 361 145 324T137 253Q137 221 145 182T172 109Q190 74 219 51T291 28Q330 28 358 48T404 99Q421 129 429 166T438 236Z" />
<glyph unicode="p" glyph-name="p" horiz-adv-x="575" d="M189 500Q186 473 185 456T184 429Q215 456 255 478T344 501Q387 501 422 481T484 427Q510 395 524 354T539 270Q539 213 520 162T466 73Q431 34 383 12T276 -11Q251 -11 225 -4T184 16V-129Q184 -151
187 -164T200 -186Q210 -193 229 -196T282 -199V-238Q265 -236 227 -236T147 -235Q105 -235 68 -235T14 -238V-199Q41 -199 57 -197T83 -187Q92 -179 95 -166T98 -131V345Q98 394 89 407T40 421V452Q72 457 100 468T152 500H189ZM184 100Q196 79 221 56T296 32Q334
32 363 49T413 96Q433 124 443 159T454 228Q454 268 446 305T419 372Q400 400 371 417T300 435Q286 435 269 429T235 414Q218 405 204 396T184 380V100Z" />
<glyph unicode="q" glyph-name="q" horiz-adv-x="575" d="M400 40Q377 20 335 5T252 -11Q202 -11 163 7T95 58Q68 89 53 130T38 217Q38 277 60 329T119 419Q155 457 201 479T295 501Q331 501 360 492T419 464L452 507H489Q487 477 487 446T486 396V-132Q486 -172
498 -185T557 -199V-237Q535 -235 502 -235T435 -235Q400 -235 370 -235T321 -238V-199Q372 -199 386 -187T400 -131V40ZM400 370Q400 381 392 396T369 425Q354 438 333 447T284 457Q264 457 237 448T186 415Q162 391 145 352T128 251Q128 209 137 173T168 110Q188
83 219 68T295 53Q319 53 350 62T400 83V370Z" />
<glyph unicode="r" glyph-name="r" horiz-adv-x="395" d="M183 404Q208 443 246 472T317 501Q338 501 360 487T383 440Q383 416 366 400T328 383Q313 383 304 387T287 396Q280 401 274 405T259 410Q248 410 235 403T210 384Q198 373 191 357T183 323V113Q183 90
186 76T200 54Q212 47 233 45T293 42V5Q271 6 234 6T157 7Q116 7 78 7T18 5V42Q45 42 60 44T84 53Q92 60 94 74T97 113V345Q97 394 88 407T39 421V452Q71 457 99 468T151 500H188Q185 476 184 451T183 404Z" />
<glyph unicode="s" glyph-name="s" horiz-adv-x="395" d="M76 159Q79 135 87 112T108 71Q122 53 141 42T189 31Q237 31 255 54T273 104Q273 125 265 140T244 168Q230 180 212 190T173 212Q116 241 81 275T45 362Q45 388 56 413T88 458Q109 477 139 489T209 501Q239
501 267 494T331 468L338 352H300Q293 406 267 431T198 457Q165 457 141 440T117 392Q117 369 127 353T154 324Q171 311 193 300T239 278Q260 267 281 256T320 229Q337 214 348 192T359 137Q359 109 349 83T316 35Q295 14 261 2T181 -11Q147 -11 113 -2T51 26L37
159H76Z" />
<glyph unicode="t" glyph-name="t" horiz-adv-x="336" d="M167 141Q167 85 181 67T217 48Q231 48 261 59T309 87L329 58Q299 27 263 8T186 -11Q137 -11 109 15T81 93V418H12V445Q63 458 87 494T123 594H167V473H326V418H167V141Z" />
<glyph unicode="u" glyph-name="u" horiz-adv-x="575" d="M394 70Q346 31 306 10T210 -11Q189 -11 168 -4T130 19Q113 35 103 59T92 120V394Q92 426 81 435T30 447V478Q57 478 100 481T182 487Q180 467 179 438T178 394V174Q178 98 195 76T251 54Q282 54 323 72T395
120V394Q395 425 379 434T323 447V478Q349 478 397 481T485 487Q483 467 482 438T481 394V86Q481 59 494 54T551 52V21Q541 19 525 15T490 7Q472 2 454 -3T421 -13Q411 -17 403 -11T394 5V70Z" />
<glyph unicode="v" glyph-name="v" horiz-adv-x="515" d="M95 365Q83 395 75 411T58 436Q50 444 40 445T13 447V487Q26 485 56 485T121 484Q154 484 185 484T230 487V447Q204 447 190 445T169 435Q164 427 167 412T180 372L270 128L368 374Q386 419 381 432T329
446V487Q346 485 370 485T420 485Q445 485 467 485T502 487V447Q485 447 475 444T456 431Q447 422 440 407T423 368L269 -11H240L95 365Z" />
<glyph unicode="w" glyph-name="w" horiz-adv-x="814" d="M93 366Q77 416 61 431T11 447V487Q25 485 54 485T115 485Q147 485 176 485T223 487V447Q182 447 172 436T169 397L275 120L373 374Q379 401 365 422T304 446V487Q325 485 354 485T414 485Q445 485 474
485T525 487V446Q480 444 472 432T472 381L569 121L672 384Q687 420 678 433T622 447V487Q641 485 665 485T715 485Q739 485 763 485T805 487V447Q769 447 753 428T723 373L570 -9H538L409 322L276 -9H244L93 366Z" />
<glyph unicode="x" glyph-name="x" horiz-adv-x="575" d="M177 72Q173 67 170 63T165 54Q164 51 164 48T170 42Q170 42 182 42T217 42V5Q197 6 171 6T116 7Q88 7 62 7T15 5V42Q56 42 81 50T140 99L254 234L125 400Q107 420 85 432T35 446V486Q56 485 84 485T144
484Q174 484 203 484T257 486V447Q217 447 209 439T219 403L304 293L401 409Q415 428 408 437T364 447V487Q407 484 462 484T562 486V447Q520 447 495 435T447 392L333 256L466 86Q486 61 504 52T562 42V6Q547 6 532 6T501 7Q486 7 472 7T443 8Q413 8 385 7T330
6V42Q372 42 381 50T377 76L283 197L177 72Z" />
<glyph unicode="y" glyph-name="y" horiz-adv-x="515" d="M224 40Q209 77 188 130T145 237Q123 290 106 335T81 403Q73 426 59 437T11 448V486Q26 485 57 485T124 484Q158 484 188 484T230 486V447Q188 444 177 435T172 402L269 151L369 395Q380 421 370 434T325
447V486Q337 485 362 485T416 485Q444 485 468 485T504 487V447Q468 447 453 431T423 381L184 -182Q172 -212 142 -226T82 -241Q58 -241 39 -225T20 -186Q20 -164 34 -148T69 -129Q80 -129 94 -132T120 -144Q128 -150 137 -148T152 -137L224 40V40Z" />
<glyph unicode="z" glyph-name="z" horiz-adv-x="455" d="M281 49Q306 49 323 52T353 65Q365 76 376 96T399 151H438L403 6Q361 7 311 7T209 8Q158 8 108 8T16 6V21L302 441H190Q169 441 152 440T121 430Q108 423 97 407T77 362H40L55 488Q89 486 137 485T237
484Q288 483 337 483T426 486L129 49H281Z" />
<glyph unicode="{" glyph-name="braceleft" horiz-adv-x="374" d="M271 502Q271 446 253 419T202 378Q219 369 232 359T253 334T266 299T271 249V33Q271 7 275 -11T290 -40T320 -58T368 -67V-95Q317 -95 283 -87T228 -61T198 -14T189 58V259Q189 303 169 331T104
370V388Q188 406 188 494V714Q188 786 232 817T369 849L370 818Q341 818 322 813T292 797T276 767T271 723V502Z" />
<glyph unicode="|" glyph-name="bar" horiz-adv-x="514" d="M216 -54V823H299V-54H216Z" />
<glyph unicode="}" glyph-name="braceright" horiz-adv-x="374" d="M104 249Q104 278 108 298T122 333T144 358T174 378Q144 392 124 419T104 502V723Q104 749 100 767T84 796T54 813T6 818V849Q99 849 143 818T187 714V494Q187 406 271 388V370Q186 348 186 259V58Q186
15 178 -14T148 -61T93 -87T8 -95V-67Q37 -65 56 -59T85 -41T100 -11T104 33V249Z" />
<glyph unicode="~" glyph-name="asciitilde" horiz-adv-x="737" d="M678 446Q670 411 656 380T619 326T567 290T499 276Q454 276 419 295T353 337T296 379T241 398Q193 398 161 366T103 279L62 299Q74 332 92 363T134 418T188 456T256 472Q290 472 322 453T386
410T450 367T516 347Q554 348 586 372T638 462L678 446Z" />
<glyph unicode="&#xa1;" glyph-name="exclamdown" horiz-adv-x="973" d="M532 248Q540 198 547 150T554 44Q554 25 551 8T541 -24T521 -46T490 -55Q470 -55 458 -47T438 -24T428 8T425 46Q425 101 431 148T442 246Q447 289 450 335T455 424T459 503T460 562H514Q514
539 514 504T517 425T522 336T532 248ZM488 638Q460 638 440 658T419 708Q419 736 439 756T488 777Q517 777 537 757T558 708Q558 679 538 659T488 638Z" />
<glyph unicode="&#xa4;" glyph-name="currency" horiz-adv-x="973" d="M866 765L913 716L773 599Q807 559 826 507T845 389Q845 321 825 267T769 172L911 42L866 -3L728 124Q683 81 623 56T487 30Q412 30 353 54T252 120L110 -6L62 42L205 171Q170 212 151 266T131
389Q131 455 149 505T198 597L66 715L112 765L242 649Q285 696 347 722T487 749Q565 749 627 723T734 648L866 765ZM785 389Q785 451 762 506T698 602T603 666T487 690Q425 690 371 667T277 602T213 506T189 389Q189 326 212 272T276 177T371 113T487 89Q549 89
603 112T697 176T761 271T785 389Z" />
<glyph unicode="&#xa7;" glyph-name="section" horiz-adv-x="973" d="M536 519Q559 494 582 469T622 416T650 360T657 298Q655 276 646 260T625 234T599 218T571 211Q575 207 590 186T618 132T631 54T607 -40Q588 -78 556 -96T487 -116T415 -101T353 -54Q333 -30
329 -9T332 29Q340 46 357 52T394 50Q407 44 414 34T423 11T424 -14T418 -38Q427 -51 440 -58T470 -66T503 -58T535 -30Q548 -12 550 15T544 72T518 130T475 181Q443 209 410 242T352 311T320 385T329 462Q336 478 347 488T372 505T398 514T424 517Q416 526 403
542T378 579T356 625T344 677Q341 720 350 751T377 804T422 837T480 849Q525 851 556 834T607 792Q627 768 631 741T609 697Q590 686 574 691T547 711T531 744T529 778Q531 791 515 800T473 805Q451 802 431 779T410 714Q410 694 417 675T436 637T461 601T488 568Q499
556 511 544T536 519ZM549 255Q573 259 581 273T587 305T576 343T557 378Q545 396 530 411T499 439T470 459T446 469Q417 473 403 462T386 431T392 387T420 342Q460 291 494 271T549 255Z" />
<glyph unicode="&#xa8;" glyph-name="dieresis" horiz-adv-x="973" d="M641 893Q656 893 669 887T693 871T710 846T716 817Q716 802 710 788T693 764T668 747T640 740Q608 740 586 764T564 819Q564 849 587 871T641 893ZM341 893Q356 893 369 887T393 871T410
846T416 817Q416 802 410 788T393 764T368 747T340 740Q324 740 310 746T286 764T269 789T263 819Q263 849 286 871T341 893Z" />
<glyph unicode="&#xa9;" glyph-name="uni0083" horiz-adv-x="973" d="M682 467H650Q640 529 607 556T515 583Q474 583 440 568T379 524T339 455T324 367Q324 315 340 272T383 199T448 152T527 135Q578 135 608 169T650 255H686L666 134Q655 127 637 121T597 109T554
100T514 97Q455 97 407 116T323 170T269 255T249 365Q249 421 271 468T330 549T414 602T512 621Q556 621 597 610T675 584L682 467ZM488 15Q559 15 621 41T729 114T801 225T828 367Q828 443 802 506T729 614T621 683T488 708Q416 708 354 684T246 614T174 506T147
367Q147 290 173 226T245 115T353 42T488 15ZM488 760Q569 760 640 731T765 650T850 526T881 367Q881 279 850 205T766 77T641 -7T488 -37Q407 -37 335 -7T209 77T124 205T92 367Q92 454 123 526T209 650T335 731T488 760Z" />
<glyph unicode="&#xaa;" glyph-name="ordfeminine" horiz-adv-x="973" d="M134 48H838V8H134V48ZM562 494Q514 483 486 473T436 453Q414 444 395 430T361 398T341 359T338 315Q345 273 371 257T436 245Q460 248 485 258T533 287Q539 291 544 299T553 317T559 336T562
353V494ZM563 248Q532 224 488 207T379 190Q352 190 329 198T288 221T260 253T246 290Q237 349 264 387T337 451Q379 476 434 495T562 532V582Q562 630 539 658T459 686Q439 686 416 681T376 660Q374 658 369 647T367 630Q371 616 370 602T361 575T339 557T304
553Q285 556 276 568T268 598T282 636T318 676Q343 699 382 710T470 721Q530 721 569 703T628 651Q642 628 646 599T650 540V302Q650 279 652 267T661 252T680 256T713 282L736 249Q722 232 698 214T639 195Q621 195 607 200T582 214T568 231T563 248Z" />
<glyph unicode="&#xab;" glyph-name="uniE217" horiz-adv-x="973" d="M758 -62L735 -92L123 370L735 832L758 802L192 370L758 -62ZM849 12L826 -21L314 370L826 760L850 729L384 370L849 12Z" />
<glyph unicode="&#xad;" glyph-name="uni00AD" horiz-adv-x="973" d="M321 243V310H653V243H321Z" />
<glyph unicode="&#xae;" glyph-name="registered" horiz-adv-x="973" d="M488 15Q559 15 621 41T729 114T801 225T828 367Q828 443 802 506T729 614T621 683T488 708Q416 708 354 684T246 614T174 506T147 367Q147 290 173 226T245 115T353 42T488 15ZM488 760Q569
760 640 731T765 650T850 526T881 367Q881 279 850 205T766 77T641 -7T488 -37Q407 -37 335 -7T209 77T124 205T92 367Q92 454 123 526T209 650T335 731T488 760ZM415 399Q415 393 415 393T426 393H470Q493 393 515 399T551 417Q565 427 572 445T580 485Q580 505
575 525T559 556Q549 567 528 574T481 582H429Q418 582 417 580T415 567V399ZM707 123H623Q621 123 613 123T595 141Q588 162 577 189T551 244Q538 273 526 297T503 341Q498 349 493 353T474 357H424Q418 357 417 355T415 348V210Q415 177 421 170Q430 161 468
161V123H305V161Q324 161 336 163T353 170Q355 173 356 182T358 210V532Q358 551 357 560T353 573Q345 580 305 580V618H510Q542 618 564 609T602 583Q639 546 639 490Q639 467 633 449T611 414Q597 394 581 384T549 371Q553 367 555 365T560 359T567 349T578 330L643
207Q648 197 656 186T669 171Q674 167 685 165T707 162V123Z" />
<glyph unicode="&#xb0;" glyph-name="degree" horiz-adv-x="973" d="M238 840Q263 840 285 830T325 803T351 763T361 714Q361 687 352 664T325 624T286 597T238 587Q211 587 188 597T148 624T121 664T111 714Q111 740 121 763T148 803T188 830T238 840ZM238 652Q261
652 279 670T297 714Q297 738 279 756T238 774Q212 774 194 756T175 714Q175 688 193 670T238 652Z" />
<glyph unicode="&#xb1;" glyph-name="plusminus" horiz-adv-x="973" d="M523 125H452V387H176V457H452V709H523V457H788V387H523V125ZM176 66H788V-3H176V66Z" />
<glyph unicode="&#xb2;" glyph-name="twosuperior" horiz-adv-x="973" d="M24 568Q38 583 55 601T88 636T117 669T137 693Q152 712 164 735T177 778Q177 797 166 813T127 829Q106 829 86 815T54 763L23 767Q32 809 58 840T136 872Q157 872 175 865T206 845T228
816T236 780Q236 765 231 751T219 724T203 700T187 680Q164 651 145 628T104 583H182Q191 583 196 584T206 588T215 597T227 615H258L227 542H24V568Z" />
<glyph unicode="&#xb3;" glyph-name="threesuperior" horiz-adv-x="973" d="M176 728Q206 718 223 697T240 649Q240 601 211 575T136 540Q117 536 99 536T67 541T44 552T35 570Q35 580 40 590T59 601Q74 601 84 597T102 587Q120 578 129 579Q148 580 163 595T180
634Q182 671 161 687T80 695L81 726Q123 731 142 752T162 797Q162 831 128 831Q108 831 92 820T61 782L28 783Q41 828 69 852T136 876Q171 876 197 856T223 802Q223 782 212 764T176 728Z" />
<glyph unicode="&#xb4;" glyph-name="acute" horiz-adv-x="973" d="M607 929Q622 914 621 898T606 871Q594 861 570 849T515 823T450 797T382 775Q370 772 367 774T372 784Q391 805 415 827T463 871T505 908T534 931Q551 944 569 946T607 929Z" />
<glyph unicode="&#xb6;" glyph-name="paragraph" horiz-adv-x="973" d="M716 -106V821H786V-106H716ZM520 -106L518 384L445 383Q386 382 339 397T259 440T208 510T190 601Q190 698 252 754T429 819Q456 820 472 820T504 821T538 821T590 820V-106H520ZM518 755H472Q377
755 321 715T265 603Q265 568 279 540T319 492T380 462T457 454L518 456V755Z" />
<glyph unicode="&#xb7;" glyph-name="middot" horiz-adv-x="296" d="M153 463Q183 463 205 441T227 387Q227 355 205 333T153 311Q121 311 99 333T76 387Q76 419 98 441T153 463Z" />
<glyph unicode="&#xb8;" glyph-name="cedilla" horiz-adv-x="973" d="M540 -41Q560 -55 569 -72T579 -116Q579 -139 569 -159T541 -195T500 -219T450 -228Q445 -228 439 -228T425 -225T403 -219T371 -208L381 -173Q398 -176 410 -177T434 -178Q455 -178 468 -166T482
-136Q482 -116 466 -104T410 -91L473 45H580L540 -41V-41Z" />
<glyph unicode="&#xb9;" glyph-name="onesuperior" horiz-adv-x="973" d="M168 886V603Q168 594 170 589T177 580T192 576T218 574V543H63V575Q92 577 103 580T114 601V793Q114 809 105 810T60 794V830L168 886Z" />
<glyph unicode="&#xba;" glyph-name="ordmasculine" horiz-adv-x="973" d="M481 729Q536 729 581 708T659 651T709 567T727 463Q727 408 710 359T660 274T582 216T481 195Q426 195 381 216T304 273T254 357T236 461Q236 516 253 565T303 650T381 708T481 729ZM134
48H838V8H134V48ZM481 237Q521 237 550 255T599 305T628 377T638 463Q638 508 628 549T599 621T550 670T481 689Q442 689 413 671T365 621T337 549T327 463Q327 418 336 378T365 306T413 256T481 237Z" />
<glyph unicode="&#xbb;" glyph-name="uniE218" horiz-adv-x="973" d="M215 802L238 832L850 370L238 -92L215 -62L781 370L215 802ZM123 729L146 760L659 370L146 -21L124 12L589 370L123 729Z" />
<glyph unicode="&#xbc;" glyph-name="onequarter" horiz-adv-x="973" d="M772 322V31H846V-17H772V-131H691V-17H509V18L713 322H772ZM579 31H691V195L579 31ZM298 873V486Q298 471 301 463T311 451T332 446T365 444V407H153V445Q170 445 182 446T203 451T215
463T219 485V761Q218 781 200 778T147 756V797L298 873ZM70 -55L858 822L898 794L113 -80L70 -55Z" />
<glyph unicode="&#xbd;" glyph-name="onehalf" horiz-adv-x="973" d="M70 -55L858 822L898 794L113 -80L70 -55ZM298 873V486Q298 471 301 463T311 451T332 446T365 444V407H153V445Q170 445 182 446T203 451T215 463T219 485V761Q218 781 200 778T147 756V797L298
873ZM543 -96Q563 -77 587 -52T633 -3T673 43T702 78Q710 88 720 103T740 135T755 169T761 202Q761 215 757 228T743 251T720 268T687 275Q674 275 659 270T630 254T604 224T584 178L542 188Q548 215 560 239T591 282T636 312T698 324Q728 324 753 315T798 288T828
249T839 201Q839 182 832 163T815 126T792 93T769 65Q738 25 708 -9T647 -79H765Q776 -79 783 -78T797 -72T810 -58T826 -33H866L829 -125H543V-96Z" />
<glyph unicode="&#xbe;" glyph-name="threequarters" horiz-adv-x="973" d="M297 657Q344 646 370 618T397 552Q397 489 356 454T251 406Q225 401 200 401T156 407T124 422T112 446Q112 457 119 468T147 479Q169 479 183 473T208 460Q229 446 242 449Q254 449
267 455T290 471T308 496T315 530Q316 557 309 576T286 605T243 619T176 617L177 654Q231 665 260 693T290 756Q290 785 277 798T242 811Q218 811 192 795T151 742H104Q118 796 157 828T253 860Q277 860 299 853T337 833T364 802T374 763Q374 736 356 710T297 657ZM772
322V31H846V-17H772V-131H691V-17H509V18L713 322H772ZM579 31H691V195L579 31ZM86 -55L872 822L913 794L130 -81L86 -55Z" />
<glyph unicode="&#xbf;" glyph-name="questiondown" horiz-adv-x="973" d="M599 162Q599 179 610 194T640 213Q656 216 670 212T694 197T710 173T716 144Q717 102 700 68T652 8T583 -30T500 -44Q455 -44 416 -32T347 3T302 63T285 147Q285 170 294 196T319 248T353
301T392 352Q432 404 452 457T472 575H523Q526 510 512 456T458 343Q445 325 431 302T406 254T387 201T380 147Q381 69 416 32T503 -6Q531 -6 554 2T595 23T623 54T633 91Q633 100 628 106T616 120T605 137T599 162ZM500 642Q471 642 451 662T430 712Q430 741 450
761T500 781Q529 781 549 761T569 712Q569 683 549 663T500 642Z" />
<glyph unicode="&#xc6;" glyph-name="AE" horiz-adv-x="973" d="M466 46Q490 46 504 47T526 54T536 70T539 99L540 244H297L191 94Q180 77 177 67T178 53T199 47T241 46L229 6H18L30 46Q48 46 61 48T87 58T113 80T143 119L524 673Q530 685 531 693T527 705T503
712T456 714L473 757L909 756L927 541L884 542Q873 602 863 636T831 688T772 709T672 714Q651 714 644 713T631 709Q625 707 624 698T622 682V399Q676 399 708 401T757 412T779 443T785 503L829 504V246L784 245Q784 285 781 305T763 337Q748 347 714 349T622 351V82Q622
74 623 64T642 52Q722 52 767 56T837 76T877 124T911 214H955L909 6H466V46ZM329 291H539V596L329 291Z" />
<glyph unicode="&#xd0;" glyph-name="Eth" horiz-adv-x="973" d="M236 624Q236 652 231 670T214 700T179 716T122 723V757H408Q485 757 554 745T674 707Q773 655 816 573T860 382Q860 329 846 277T804 179T733 98T634 42Q588 28 536 18T418 7H122V41Q158 43 180
46T214 60T231 88T236 138V334H112V381H236V624ZM577 381V334H326V87Q326 70 330 62T342 49T361 45T386 44Q453 44 516 53T622 87Q654 105 680 135T724 203T753 287T763 380Q763 423 755 464T731 542T695 608T649 657Q597 696 529 709T382 722Q368 722 358 722T340
717T330 704T326 679V381H577Z" />
<glyph unicode="&#xd7;" glyph-name="multiply" horiz-adv-x="973" d="M481 316L243 76L193 124L435 366L190 610L241 659L483 416L725 658L771 610L531 367L771 124L724 75L481 316Z" />
<glyph unicode="&#xd8;" glyph-name="Oslash" horiz-adv-x="973" d="M731 662Q783 608 809 536T836 379Q836 299 810 228T737 104T626 19T485 -12Q424 -12 372 6T284 56L216 -33L173 5L240 96Q137 207 137 379Q137 459 162 530T234 655T344 740T485 772Q548 772
600 753T688 705L755 794L802 759Q797 753 786 739T764 709T743 680T731 662ZM649 651Q617 685 577 704T485 723Q427 723 381 696T301 623T251 514T233 379Q233 347 237 315T249 253T265 199T286 157L649 651ZM323 110Q355 75 396 54T485 33Q545 33 592 59T673
132T723 242T741 379Q741 412 737 444T725 506T707 561T686 603L323 110Z" />
<glyph unicode="&#xde;" glyph-name="Thorn" horiz-adv-x="973" d="M377 536V214H491Q529 214 562 224T619 255T658 307T672 381Q672 425 659 454T622 502T565 528T490 536H377ZM461 5H210V44Q237 44 253 47T279 58T291 81T294 117V655Q294 676 291 688T279 706T254
714T209 716L210 757H461V716Q411 716 394 705T377 656V577H524Q580 577 624 564T699 525T746 463T763 383Q763 337 747 299T702 232T631 188T536 172H377V113Q377 92 379 79T391 57T417 45T462 42L461 5Z" />
<glyph unicode="&#xdf;" glyph-name="germandbls" horiz-adv-x="973" d="M595 407Q667 383 705 332T743 208Q743 161 727 121T682 51T613 5T526 -12Q503 -12 479 -8T433 3T397 17T377 31V39H375Q375 23 368 15T336 6H230V49Q255 49 267 50T286 57Q293 65 293 114V557Q293
602 307 641T347 709T410 754T492 771Q535 771 574 759T644 722T692 661T710 578Q710 515 681 474T595 407ZM412 428Q414 428 421 428T436 428T452 428T467 427Q491 425 516 431T570 459Q591 477 603 508T616 578Q616 608 608 634T583 679T543 709T490 720Q466
720 446 707T409 673T384 623T375 564V101Q387 89 403 77T440 55T483 41T531 37Q555 38 576 51T614 88T640 142T650 212Q650 254 636 285T599 337T545 368T481 378Q475 378 465 378T445 377T425 376T412 375V428Z" />
<glyph unicode="&#xe6;" glyph-name="ae" horiz-adv-x="973" d="M752 282Q767 282 770 286T773 312Q773 340 766 366T743 411T706 442T655 454Q622 454 599 439T560 398T536 343T525 282H752ZM403 96Q428 127 434 162T440 248Q406 246 365 241T287 221T226 183T201
117Q201 79 225 58T287 37Q303 37 320 42T353 55T382 74T403 96ZM861 122Q835 60 787 22T655 -16Q621 -16 592 -7T539 17T499 52T473 93Q459 69 436 49T384 15T324 -8T262 -16Q233 -16 206 -9T157 13T124 53T111 111Q111 148 128 175T174 223T239 256T311 277T381
289T440 294V376Q440 419 407 438T324 457Q315 457 304 455T280 449T258 439T240 424Q235 418 236 414T241 404T250 395T259 384Q263 376 264 373T266 359Q265 333 247 318T204 302Q170 302 156 322T141 371Q141 406 163 431T216 474Q248 491 280 497T346 503Q383
502 411 495T458 478T490 454T507 428Q515 441 529 454T562 478T605 496T658 503Q709 503 746 483T809 429T846 353T861 267V256Q861 248 856 241T834 234H524Q524 189 533 152T562 87T610 46T679 32Q701 33 722 42T762 65T796 99T821 139L861 122Z" />
<glyph unicode="&#xf0;" glyph-name="eth" horiz-adv-x="973" d="M354 225Q354 178 364 140T392 74T435 31T490 16Q520 16 544 31T586 74T613 140T623 225Q623 269 613 307T585 374T543 419T489 435Q460 435 436 419T393 375T365 309T354 225ZM363 782Q414 761
450 736T517 680L647 746L684 700L559 634Q599 592 630 543T682 441T714 337T725 236Q725 176 708 128T660 47T585 -4T486 -22Q433 -22 390 -4T314 46T265 124T247 226Q247 278 264 323T313 402T387 455T480 475Q512 475 545 468T601 443Q596 456 587 475T565 516T536
561T502 607L330 520L299 568L465 652Q431 687 399 711T330 751L363 782Z" />
<glyph unicode="&#xf7;" glyph-name="divide" horiz-adv-x="973" d="M489 711Q521 711 542 689T564 634Q564 619 558 606T542 582T518 565T489 559Q474 559 461 565T437 582T420 607T414 636Q414 651 420 664T437 688T461 705T489 711ZM177 415H798V344H177V415ZM489
199Q521 199 542 177T564 123Q564 108 558 94T542 70T518 53T489 47Q474 47 461 53T437 71T420 96T414 125Q414 140 420 153T437 177T461 193T489 199Z" />
<glyph unicode="&#xf8;" glyph-name="oslash" horiz-adv-x="973" d="M653 559L704 525L650 440Q690 407 713 359T736 247Q736 194 717 147T665 65T587 10T491 -11Q428 -11 378 14L321 -74L268 -37L324 48Q283 81 260 130T236 242Q236 295 254 342T305 424T381
480T478 501Q546 501 598 473L653 559ZM567 425Q535 462 481 462Q442 462 414 443T369 393T344 325T336 253Q336 223 343 187T368 116L567 425ZM407 61Q424 46 444 37T489 28Q529 28 557 48T603 98T629 166T637 236Q637 268 630 303T605 371L407 61Z" />
<glyph unicode="&#xfe;" glyph-name="thorn" horiz-adv-x="973" d="M399 -4Q399 -56 406 -63Q414 -71 429 -72T471 -73V-118H252V-73Q276 -73 290 -72T312 -65Q316 -60 317 -46T318 -7V510Q318 524 317 532T309 544T288 549T248 550V589L371 601Q390 603 394 598T399
578V452Q405 459 419 468T452 486T494 501T544 507Q585 507 618 491T675 448T711 384T724 309V195Q724 156 712 120T676 57T619 14T544 -2Q507 -2 469 3T399 37V-4ZM399 130Q413 88 449 71T530 53Q549 53 567 62T600 88T624 131T633 190V313Q633 346 624 371T601
414T568 440T530 449Q512 449 493 444T457 429T424 406T399 376V130Z" />
<glyph unicode="&#xff;" glyph-name="ydieresis" horiz-adv-x="973" d="M799 385Q827 385 841 368T855 331T841 293T799 276Q772 276 759 293T745 330T758 368T799 385ZM488 385Q516 385 529 368T543 331T530 293T488 276Q461 276 448 293T434 330T447 368T488
385ZM177 385Q205 385 218 368T231 331T218 293T177 276Q149 276 136 293T123 330T136 368T177 385Z" />
<glyph unicode="&#x2013;" glyph-name="endash" horiz-adv-x="973" d="M213 319V389H750V319H213Z" />
<glyph unicode="&#x2014;" glyph-name="emdash" horiz-adv-x="973" d="M53 319V389H920V319H53Z" />
<glyph unicode="&#x2018;" glyph-name="quoteleft" horiz-adv-x="296" d="M170 735Q185 739 199 735T223 721T240 699T247 673Q247 647 228 626T177 604Q139 604 119 631T98 700Q98 756 128 800T217 863L237 837Q200 823 180 799T160 743Q160 731 170 735Z" />
<glyph unicode="&#x2019;" glyph-name="quoteright" horiz-adv-x="296" d="M131 720Q116 716 102 720T78 734T61 756T54 782Q54 808 73 829T124 851Q162 851 182 824T203 755Q203 699 173 655T84 592L65 618Q101 632 121 656T141 712Q141 724 131 720Z" />
<glyph unicode="&#x201c;" glyph-name="quotedblleft" horiz-adv-x="451" d="M151 735Q166 739 179 735T203 721T220 699T227 673Q227 647 208 626T158 604Q120 604 100 631T79 700Q79 756 109 800T198 863L217 837Q181 823 161 799T140 743Q140 731 151 735ZM324
735Q339 739 353 735T377 721T394 699T400 673Q400 647 381 626T331 604Q293 604 273 631T252 700Q252 756 282 800T371 863L390 837Q354 823 334 799T313 743Q313 731 324 735Z" />
<glyph unicode="&#x201d;" glyph-name="quotedblright" horiz-adv-x="451" d="M301 721Q286 717 272 721T248 735T231 757T224 783Q224 809 243 830T294 852Q332 852 352 825T373 756Q373 700 343 656T254 593L234 620Q271 634 291 658T311 713Q311 725 301 721ZM128
721Q113 717 99 721T75 735T58 757T51 783Q51 809 70 830T121 852Q159 852 179 825T200 756Q200 700 170 656T81 593L61 620Q98 634 118 658T138 713Q138 725 128 721Z" />
<glyph unicode="&#x2022;" glyph-name="bullet" horiz-adv-x="973" d="M486 491Q531 491 563 456T596 369Q596 318 564 283T486 247Q440 247 408 282T376 369Q376 420 408 455T486 491Z" />
<glyph unicode="&#x2039;" glyph-name="guilsinglleft" horiz-adv-x="973" d="M840 810L202 370L840 -69V-111L133 370L840 850V810Z" />
<glyph unicode="&#x203a;" glyph-name="guilsinglright" horiz-adv-x="973" d="M840 370L133 -111V-69L771 370L133 810V850L840 370Z" />
</font>
</defs>
</svg>
